<?xml version="1.0" encoding="utf-8"?>
<!-- Generator: Adobe Illustrator 24.3.0, SVG Export Plug-In . SVG Version: 6.00 Build 0)  -->
<svg version="1.1" id="Layer_1" focusable="false" xmlns="http://www.w3.org/2000/svg" xmlns:xlink="http://www.w3.org/1999/xlink"
	 x="0px" y="0px" viewBox="0 0 72 72" style="enable-background:new 0 0 72 72;" xml:space="preserve">
<path d="M0,36C0,16.1,16.1,0,36,0c19.9,0,36,16.1,36,36S55.9,72,36,72S0,55.9,0,36z M31.8,56.1l1.6,1.6c1.3,1.4,3.5,1.4,4.9,0
	l19.2-19.3c1.4-1.3,1.4-3.5,0-4.9L38.2,14.3c-1.3-1.4-3.5-1.4-4.9,0l-1.6,1.6c-1.3,1.4-1.3,3.7,0.1,5l11,10.5H16.3
	c-1.9,0-3.5,1.6-3.5,3.5v2.3c0,1.9,1.6,3.5,3.5,3.5h26.5l-11,10.5C30.4,52.5,30.4,54.8,31.8,56.1z"/>
</svg>
