<?xml version="1.0" encoding="utf-8"?>
<!-- Generator: Adobe Illustrator 24.3.0, SVG Export Plug-In . SVG Version: 6.00 Build 0)  -->
<svg version="1.1" id="Layer_1" focusable="false" xmlns="http://www.w3.org/2000/svg" xmlns:xlink="http://www.w3.org/1999/xlink"
	 x="0px" y="0px" viewBox="0 0 72 72" style="enable-background:new 0 0 72 72;" xml:space="preserve">
<path d="M0,36C0,16.1,16.1,0,36,0s36,16.1,36,36S55.9,72,36,72S0,55.9,0,36z M20.8,40.2l10.5-11v26.5c0,1.9,1.6,3.5,3.5,3.5h2.3
	c1.9,0,3.5-1.6,3.5-3.5V29.2l10.5,11c1.3,1.4,3.6,1.4,5,0.1l1.6-1.6c1.4-1.4,1.4-3.6,0-4.9L38.5,14.5c-1.4-1.4-3.6-1.4-4.9,0
	L14.3,33.7c-1.4,1.4-1.4,3.6,0,4.9l1.6,1.6C17.2,41.6,19.5,41.6,20.8,40.2z"/>
</svg>
