<?xml version="1.0" encoding="utf-8"?>
<!-- Generator: Adobe Illustrator 24.3.0, SVG Export Plug-In . SVG Version: 6.00 Build 0)  -->
<svg version="1.1" id="Layer_1" focusable="false" xmlns="http://www.w3.org/2000/svg" xmlns:xlink="http://www.w3.org/1999/xlink"
	 x="0px" y="0px" viewBox="0 0 72 72" style="enable-background:new 0 0 72 72;" xml:space="preserve">
<path d="M36,72C16.1,72,0,55.9,0,36C0,16.1,16.1,0,36,0s36,16.1,36,36S55.9,72,36,72z M40.2,51.2l-11-10.5h26.5
	c1.9,0,3.5-1.6,3.5-3.5v-2.3c0-1.9-1.6-3.5-3.5-3.5H29.2l11-10.5c1.4-1.3,1.4-3.6,0.1-5l-1.6-1.6c-1.4-1.4-3.6-1.4-4.9,0L14.5,33.5
	c-1.4,1.4-1.4,3.6,0,4.9l19.2,19.3c1.4,1.4,3.6,1.4,4.9,0l1.6-1.6C41.6,54.8,41.6,52.5,40.2,51.2z"/>
</svg>
