<?xml version="1.0" encoding="utf-8"?>
<!-- Generator: Adobe Illustrator 24.3.0, SVG Export Plug-In . SVG Version: 6.00 Build 0)  -->
<svg version="1.1" id="Layer_1" xmlns="http://www.w3.org/2000/svg" xmlns:xlink="http://www.w3.org/1999/xlink" x="0px" y="0px"
	 viewBox="0 0 216.6 13.6" style="enable-background:new 0 0 216.6 13.6;" xml:space="preserve">
<style type="text/css">
	.st0{clip-path:url(#SVGID_2_);fill:#1373BA;}
</style>
<g>
	<defs>
		<rect id="SVGID_1_" x="1.1" y="0.1" width="215" height="13.4"/>
	</defs>
	<clipPath id="SVGID_2_">
		<use xlink:href="#SVGID_1_"  style="overflow:visible;"/>
	</clipPath>
	<path class="st0" d="M349.7,9.5c-4-0.1-8-1.5-11.1-4l-0.3-0.2c-2.2-1.8-4.8-3.2-7.6-4l-0.1,0c-0.4-0.1-0.9-0.2-1.3-0.3l-0.1,0
		c-0.5-0.1-0.9-0.2-1.4-0.2l-0.2,0c-0.4,0-0.8-0.1-1.2-0.1l-0.3,0c-0.5,0-0.9,0-1.3,0h-0.1c-0.4,0-0.8,0-1.3,0c-0.1,0-0.2,0-0.3,0
		l0,0c-0.4,0-0.7,0.1-1.1,0.1l-0.3,0c-0.5,0.1-0.9,0.1-1.3,0.2l0,0c-0.4,0.1-0.8,0.2-1.2,0.3l-0.2,0.1c-0.9,0.2-1.7,0.5-2.6,0.9
		c-0.4,0.2-0.8,0.4-1.2,0.6l0,0c-1.5,0.8-2.9,1.7-4.2,2.8c-3.1,2.5-6.9,3.8-10.9,3.8l-0.1,0c-4-0.1-7.9-1.5-11.1-4l-0.3-0.2
		c-2.2-1.8-4.8-3.2-7.6-4l-0.1,0c-0.5-0.1-0.9-0.2-1.3-0.3l-0.1,0c-0.5-0.1-0.9-0.2-1.4-0.2l-0.2,0c-0.4,0-0.8-0.1-1.2-0.1l-0.3,0
		c-0.5,0-0.9,0-1.3,0h-0.1c-0.4,0-0.8,0-1.3,0c-0.1,0-0.2,0-0.3,0l0,0c-0.4,0-0.7,0.1-1.1,0.1l-0.2,0c-0.5,0.1-0.9,0.1-1.3,0.2l0,0
		c-0.4,0.1-0.8,0.2-1.2,0.3l-0.2,0.1c-0.9,0.2-1.7,0.5-2.6,0.9c-0.4,0.2-0.8,0.4-1.2,0.6l-0.1,0c-1.5,0.8-2.9,1.7-4.2,2.8
		c-3.1,2.5-6.9,3.8-10.9,3.8l-0.1,0c-4-0.1-7.9-1.5-11.1-4l-0.3-0.2c-2.2-1.8-4.8-3.2-7.6-4l-0.1,0c-0.5-0.1-0.9-0.2-1.3-0.3l-0.1,0
		c-0.5-0.1-0.9-0.2-1.4-0.2l-0.2,0c-0.4,0-0.8-0.1-1.2-0.1l-0.3,0c-0.5,0-0.9,0-1.3,0h-0.1c-0.4,0-0.8,0-1.3,0c-0.1,0-0.2,0-0.3,0
		l-0.1,0c-0.4,0-0.7,0.1-1.1,0.1l-0.2,0c-0.5,0.1-0.9,0.1-1.3,0.2l0,0c-0.4,0.1-0.8,0.2-1.2,0.3l-0.2,0.1c-0.9,0.2-1.7,0.5-2.6,0.9
		c-0.4,0.2-0.8,0.4-1.2,0.6l0,0c-1.5,0.8-2.9,1.7-4.2,2.8c-3.1,2.5-6.9,3.8-10.9,3.8l-0.1,0c-4-0.1-8-1.5-11.1-4l-0.3-0.2
		c-2.2-1.8-4.8-3.2-7.6-4l-0.1,0c-0.5-0.1-0.9-0.2-1.3-0.3l-0.1,0c-0.5-0.1-0.9-0.2-1.4-0.2l-0.2,0c-0.4,0-0.8-0.1-1.2-0.1l-0.3,0
		c-0.5,0-0.9,0-1.3,0h-0.1c-0.4,0-0.8,0-1.3,0c-0.1,0-0.2,0-0.3,0l0,0c-0.4,0-0.7,0.1-1.1,0.1l-0.2,0c-0.5,0.1-0.9,0.1-1.3,0.2l0,0
		c-0.4,0.1-0.8,0.2-1.2,0.3l-0.2,0.1c-0.9,0.2-1.7,0.5-2.6,0.9c-0.4,0.2-0.8,0.4-1.2,0.6l0,0c-1.5,0.8-2.9,1.7-4.2,2.8
		c-3.1,2.5-6.9,3.8-10.9,3.8l-0.1,0c-4-0.1-8-1.5-11.1-4L140,5.4c-2.2-1.8-4.8-3.2-7.6-4l-0.1,0c-0.5-0.1-0.9-0.2-1.3-0.3l-0.1,0
		c-0.5-0.1-0.9-0.2-1.4-0.2l-0.2,0c-0.4,0-0.8-0.1-1.2-0.1l-0.3,0c-0.5,0-0.9,0-1.3,0h-0.1c-0.4,0-0.8,0-1.3,0c-0.1,0-0.2,0-0.3,0
		l0,0c-0.4,0-0.7,0.1-1.1,0.1l-0.2,0c-0.5,0.1-0.9,0.1-1.3,0.2l0,0c-0.4,0.1-0.8,0.2-1.2,0.3l-0.2,0.1c-0.9,0.2-1.7,0.5-2.6,0.9
		c-0.4,0.2-0.8,0.4-1.2,0.6l0,0c-1.5,0.8-2.9,1.7-4.2,2.8c-3.1,2.5-6.9,3.8-10.9,3.8l-0.1,0c-4-0.1-8-1.5-11.1-4l-0.3-0.2
		c-2.2-1.8-4.8-3.2-7.6-4l-0.1,0c-0.5-0.1-0.9-0.2-1.3-0.3l-0.1,0c-0.5-0.1-0.9-0.2-1.4-0.2l-0.2,0c-0.4,0-0.8-0.1-1.2-0.1l-0.3,0
		c-0.5,0-0.9,0-1.3,0h-0.1c-0.4,0-0.8,0-1.3,0c-0.1,0-0.2,0-0.3,0l0,0c-0.4,0-0.7,0.1-1.1,0.1l-0.2,0C73.5,0.8,73,0.9,72.6,1l0,0
		c-0.4,0.1-0.8,0.2-1.2,0.3l-0.2,0.1c-0.9,0.2-1.7,0.5-2.6,0.9c-0.4,0.2-0.8,0.4-1.2,0.6l0,0c-1.5,0.8-2.9,1.7-4.2,2.8
		C60,8.2,56.2,9.5,52.2,9.5l-0.1,0c-4-0.1-8-1.5-11.1-4l-0.3-0.2c-2.2-1.8-4.8-3.2-7.6-4l-0.1,0c-0.5-0.1-0.9-0.2-1.3-0.3l-0.1,0
		c-0.5-0.1-0.9-0.2-1.4-0.2l-0.2,0c-0.4,0-0.8-0.1-1.2-0.1l-0.3,0c-0.5,0-0.9,0-1.3,0h-0.1c-0.4,0-0.8,0-1.3,0c-0.1,0-0.2,0-0.3,0
		l0,0c-0.4,0-0.7,0.1-1.1,0.1l-0.2,0C23.9,0.8,23.4,0.9,23,1l0,0c-0.4,0.1-0.8,0.2-1.2,0.3l-0.2,0.1c-0.9,0.2-1.7,0.5-2.6,0.9
		c-0.4,0.2-0.8,0.4-1.2,0.6l0,0c-1.5,0.8-2.9,1.7-4.2,2.8c-3.1,2.5-6.9,3.8-11,3.8l-1.4,0v3.3l1.4,0c3.8,0,7.5-1.1,10.7-2.9
		c0.9-0.5,2.7-1.9,2.9-2.1c1-0.8,2-1.4,3.1-2c1.1-0.5,2.2-1,3.4-1.3l0.1,0c0.2,0,0.4-0.1,0.5-0.1l0.3-0.1c0.2,0,0.3-0.1,0.5-0.1
		c0.1,0,0.2,0,0.3-0.1c0.1,0,0.3,0,0.4-0.1c0.1,0,0.3,0,0.4-0.1c0.1,0,0.3,0,0.4,0c0.2,0,0.3,0,0.5,0l0.1,0c0.1,0,0.1,0,0.2,0
		c0.3,0,0.5,0,0.8,0l0.1,0c0.3,0,0.5,0,0.8,0l0.3,0c0.2,0,0.3,0,0.5,0c0.1,0,0.2,0,0.4,0c0.2,0,0.3,0,0.5,0.1l0.1,0
		c0.1,0,0.2,0,0.3,0c0.1,0,0.3,0,0.4,0.1l0.1,0c0.2,0,0.5,0.1,0.7,0.1l0.1,0c0.1,0,0.2,0,0.2,0.1c0.2,0,0.3,0.1,0.5,0.1
		c0.1,0,0.2,0.1,0.3,0.1c0.2,0,0.3,0.1,0.5,0.1l0.2,0.1c0.2,0.1,0.3,0.1,0.5,0.2l0.1,0c0.6,0.2,1.2,0.5,1.8,0.8l0.1,0
		c0.2,0.1,0.4,0.2,0.6,0.3l0,0c0.6,0.3,1.2,0.7,1.6,1c0,0,0.4,0.3,1,0.7l2.5,1.8l0.1,0.1c2.8,1.7,6,2.7,9.3,3v0.1l1.4,0
		c3.8,0,7.5-1.1,10.7-2.9c0.9-0.5,2.7-1.9,2.9-2.1c0.9-0.8,2-1.4,3.1-2l0.1,0c1.1-0.5,2.2-1,3.4-1.3l0.1,0c0.2,0,0.4-0.1,0.5-0.1
		l0.3-0.1c0.2,0,0.3-0.1,0.5-0.1c0.1,0,0.2,0,0.3-0.1c0.1,0,0.3,0,0.4-0.1c0.1,0,0.3,0,0.4-0.1c0.1,0,0.3,0,0.4,0c0.2,0,0.3,0,0.5,0
		l0.1,0c0.1,0,0.1,0,0.2,0c0.3,0,0.5,0,0.8,0l0.1,0c0.3,0,0.5,0,0.8,0l0.3,0c0.2,0,0.3,0,0.5,0c0.1,0,0.2,0,0.4,0
		c0.2,0,0.3,0,0.5,0.1l0.1,0c0.1,0,0.2,0,0.3,0c0.1,0,0.3,0,0.4,0.1l0,0c0.2,0,0.5,0.1,0.7,0.1l0.1,0c0.1,0,0.2,0,0.2,0.1
		c0.1,0,0.3,0.1,0.5,0.1c0.1,0,0.2,0.1,0.3,0.1c0.2,0,0.3,0.1,0.5,0.1l0.2,0.1c0.2,0.1,0.3,0.1,0.5,0.2l0.1,0
		c0.6,0.2,1.2,0.5,1.8,0.8l0.1,0c0.2,0.1,0.4,0.2,0.5,0.3l0.2-0.4c0,0,0,0,0,0l-0.2,0.4c0.6,0.3,1.2,0.7,1.7,1c0,0,0.4,0.3,1,0.7
		l2.5,1.8L91,9.7c2.8,1.7,6,2.7,9.3,3v0.1l1.4,0c3.8,0,7.5-1.1,10.7-2.9c0.9-0.5,2.7-1.9,2.9-2.1c1-0.8,2-1.4,3.1-2
		c1.1-0.5,2.2-1,3.4-1.3l0.1,0c0.2,0,0.4-0.1,0.5-0.1l0.3-0.1c0.2,0,0.3-0.1,0.5-0.1c0.1,0,0.2,0,0.3-0.1c0.1,0,0.3,0,0.4-0.1
		c0.1,0,0.3,0,0.4-0.1c0.1,0,0.3,0,0.4,0c0.2,0,0.3,0,0.5,0l0.1,0c0.1,0,0.1,0,0.2,0c0.3,0,0.5,0,0.8,0l0.1,0c0.3,0,0.5,0,0.8,0
		l0.3,0c0.2,0,0.3,0,0.5,0c0.1,0,0.2,0,0.4,0c0.2,0,0.3,0,0.5,0.1l0.1,0c0.1,0,0.2,0,0.3,0c0.1,0,0.3,0,0.4,0.1l0.1,0
		c0.2,0,0.5,0.1,0.7,0.1l0.1,0c0.1,0,0.2,0,0.2,0.1c0.2,0,0.3,0.1,0.5,0.1c0.1,0,0.2,0.1,0.3,0.1c0.2,0,0.3,0.1,0.5,0.1l0.2,0.1
		c0.2,0.1,0.3,0.1,0.5,0.2l0.1,0c0.6,0.2,1.2,0.5,1.8,0.8l0.1,0c0.2,0.1,0.4,0.2,0.6,0.3l0,0c0.6,0.3,1.2,0.7,1.6,1
		c0,0,0.4,0.3,1,0.7l2.5,1.8l0.1,0.1c2.8,1.7,6,2.7,9.3,3v0.1l1.4,0c3.8,0,7.5-1.1,10.7-2.9c0.9-0.5,2.7-1.9,2.9-2.1
		c0.9-0.8,2-1.4,3.1-2l0.1,0c1.1-0.5,2.2-1,3.4-1.3l0.1,0c0.2,0,0.4-0.1,0.5-0.1l0.3-0.1c0.2,0,0.3-0.1,0.5-0.1c0.1,0,0.2,0,0.3-0.1
		c0.1,0,0.3,0,0.4-0.1c0.1,0,0.3,0,0.4-0.1c0.1,0,0.3,0,0.4,0c0.2,0,0.3,0,0.5,0l0.1,0c0.1,0,0.1,0,0.2,0c0.3,0,0.5,0,0.8,0l0.1,0
		c0.3,0,0.5,0,0.8,0l0.3,0c0.2,0,0.3,0,0.5,0c0.1,0,0.2,0,0.4,0c0.2,0,0.3,0,0.5,0.1l0.1,0c0.1,0,0.2,0,0.3,0c0.1,0,0.3,0,0.4,0.1
		l0,0c0.2,0,0.5,0.1,0.7,0.1l0.1,0c0.1,0,0.2,0,0.2,0.1c0.1,0,0.3,0.1,0.5,0.1c0.1,0,0.2,0.1,0.3,0.1c0.2,0,0.3,0.1,0.5,0.1l0.2,0.1
		c0.2,0.1,0.3,0.1,0.5,0.2l0.1,0c0.6,0.2,1.2,0.5,1.8,0.8l0.1,0c0.2,0.1,0.4,0.2,0.5,0.3l0.2-0.4c0,0,0,0,0,0L185,6.1
		c0.6,0.3,1.2,0.7,1.7,1c0,0,0.4,0.3,1,0.7l2.5,1.8l0.1,0.1c2.8,1.7,6,2.7,9.3,3v0.1l1.4,0c3.8,0,7.5-1.1,10.7-2.9
		c0.9-0.5,2.7-1.9,2.9-2.1c1-0.8,2-1.4,3.1-2c1.1-0.5,2.2-1,3.4-1.3l0.1,0c0.2,0,0.4-0.1,0.5-0.1l0.3-0.1c0.2,0,0.3-0.1,0.5-0.1
		c0.1,0,0.2,0,0.3-0.1c0.1,0,0.3,0,0.4-0.1c0.1,0,0.3,0,0.4-0.1c0.1,0,0.3,0,0.4,0c0.2,0,0.3,0,0.5,0l0.1,0c0.1,0,0.1,0,0.2,0
		c0.3,0,0.5,0,0.8,0l0.1,0c0.3,0,0.5,0,0.8,0l0.3,0c0.2,0,0.3,0,0.5,0c0.1,0,0.2,0,0.4,0c0.2,0,0.3,0,0.4,0.1l0.1,0
		c0.1,0,0.2,0,0.3,0c0.1,0,0.3,0,0.4,0.1l0.1,0c0.2,0,0.5,0.1,0.7,0.1l0.1,0c0.1,0,0.2,0,0.2,0.1c0.1,0,0.3,0.1,0.5,0.1
		c0.1,0,0.2,0.1,0.3,0.1c0.2,0,0.3,0.1,0.5,0.1l0.2,0.1c0.2,0.1,0.3,0.1,0.5,0.2l0.1,0c0.6,0.2,1.2,0.5,1.8,0.8l0.1,0
		c0.2,0.1,0.4,0.2,0.5,0.3l0.2-0.4c0,0,0,0,0,0l-0.2,0.4c0.6,0.3,1.2,0.7,1.6,1c0,0,0.4,0.3,1,0.7l2.5,1.8l0.1,0.1
		c2.8,1.7,6,2.7,9.3,3v0.1l1.4,0c3.8,0,7.5-1.1,10.7-2.9c0.9-0.5,2.7-1.9,2.9-2.1c1-0.8,2-1.4,3.1-2l0,0c1.1-0.5,2.2-1,3.4-1.3
		l0.1,0c0.2,0,0.4-0.1,0.5-0.1l0.3-0.1c0.2,0,0.3-0.1,0.5-0.1c0.1,0,0.2,0,0.3-0.1c0.1,0,0.3,0,0.4-0.1c0.1,0,0.3,0,0.4-0.1
		c0.1,0,0.3,0,0.4,0c0.2,0,0.3,0,0.5,0l0.1,0c0.1,0,0.1,0,0.2,0c0.3,0,0.5,0,0.8,0l0.1,0c0.3,0,0.5,0,0.8,0l0.3,0c0.2,0,0.3,0,0.5,0
		c0.1,0,0.2,0,0.4,0c0.2,0,0.3,0,0.5,0.1l0.1,0c0.1,0,0.2,0,0.3,0c0.1,0,0.3,0,0.4,0.1c0.2,0,0.5,0.1,0.7,0.1l0.1,0
		c0.1,0,0.2,0,0.2,0.1c0.1,0,0.3,0.1,0.5,0.1c0.1,0,0.2,0.1,0.3,0.1c0.2,0,0.3,0.1,0.5,0.1l0.2,0.1c0.2,0.1,0.3,0.1,0.5,0.2l0.1,0
		c0.6,0.2,1.2,0.5,1.8,0.8l0.1,0c0.2,0.1,0.4,0.2,0.5,0.3l0.1,0c0.6,0.3,1.2,0.7,1.6,1c0,0,0.4,0.3,1,0.7l2.5,1.8l0.1,0.1
		c2.8,1.7,6,2.7,9.3,3v0.1l1.4,0c3.8,0,7.5-1.1,10.7-2.9c0.9-0.5,2.7-1.9,2.9-2.1c0.9-0.8,2-1.4,3-2l0.1,0c1.1-0.5,2.2-1,3.4-1.3
		l0.1,0c0.2,0,0.4-0.1,0.5-0.1l0.3-0.1c0.2,0,0.3-0.1,0.5-0.1c0.1,0,0.2,0,0.3-0.1c0.1,0,0.3,0,0.4-0.1c0.1,0,0.3,0,0.4-0.1
		c0.1,0,0.3,0,0.4,0c0.2,0,0.3,0,0.5,0l0.1,0c0.1,0,0.1,0,0.2,0c0.3,0,0.5,0,0.8,0l0.1,0c0.3,0,0.5,0,0.8,0l0.3,0c0.2,0,0.3,0,0.5,0
		c0.1,0,0.2,0,0.4,0c0.2,0,0.3,0,0.5,0.1l0.1,0c0.1,0,0.2,0,0.3,0c0.1,0,0.3,0,0.4,0.1c0.2,0,0.5,0.1,0.7,0.1l0.1,0
		c0.1,0,0.2,0,0.2,0.1c0.2,0,0.3,0.1,0.5,0.1c0.1,0,0.2,0.1,0.3,0.1c0.2,0,0.3,0.1,0.5,0.1l0.2,0.1c0.2,0.1,0.3,0.1,0.5,0.2l0.1,0
		c0.6,0.2,1.2,0.5,1.8,0.8l0.1,0c0.2,0.1,0.4,0.2,0.5,0.3l0.2-0.4c0,0,0,0,0,0l-0.2,0.4c0.6,0.3,1.2,0.7,1.6,1c0,0,0.4,0.3,1,0.7
		l2.5,1.8l0.1,0.1c3.2,1.9,6.9,3,10.7,3l1.4,0V9.6L349.7,9.5z"/>
</g>
</svg>
