<?xml version="1.0" encoding="utf-8"?>
<!-- Generator: Adobe Illustrator 24.3.0, SVG Export Plug-In . SVG Version: 6.00 Build 0)  -->
<svg version="1.1" id="Layer_1" focusable="false" xmlns="http://www.w3.org/2000/svg" xmlns:xlink="http://www.w3.org/1999/xlink"
	 x="0px" y="0px" viewBox="0 0 50 50" style="enable-background:new 0 0 50 50;" xml:space="preserve">
<path d="M45.3,6.3H4.7C2.1,6.3,0,8.3,0,10.9v28.1c0,2.6,2.1,4.7,4.7,4.7h40.6c2.6,0,4.7-2.1,4.7-4.7V10.9C50,8.3,47.9,6.3,45.3,6.3z
	 M45.3,10.9v4c-2.2,1.8-5.7,4.6-13.1,10.4c-1.6,1.3-4.9,4.4-7.2,4.4c-2.3,0-5.5-3.1-7.2-4.4c-7.5-5.8-11-8.6-13.1-10.4v-4H45.3z
	 M4.7,39.1V20.9c2.2,1.8,5.4,4.3,10.2,8.1c2.1,1.7,5.9,5.4,10.1,5.4c4.2,0,7.9-3.6,10.1-5.4c4.8-3.8,8-6.3,10.2-8.1v18.1H4.7z"/>
</svg>
