<?xml version="1.0" encoding="utf-8"?>
<!-- Generator: Adobe Illustrator 24.3.0, SVG Export Plug-In . SVG Version: 6.00 Build 0)  -->
<svg version="1.1" id="Layer_1" focusable="false" xmlns="http://www.w3.org/2000/svg" xmlns:xlink="http://www.w3.org/1999/xlink"
	 x="0px" y="0px" viewBox="0 0 448 452" style="enable-background:new 0 0 448 452;" xml:space="preserve">
<style type="text/css">
	.st0{fill:#FFFFFF;}
</style>
<path class="st0" d="M400,2H48C21.5,2,0,23.5,0,50v352c0,26.5,21.5,48,48,48h137.3V297.7h-63V226h63v-54.6c0-62.2,37-96.5,93.7-96.5
	c27.1,0,55.5,4.8,55.5,4.8v61h-31.3c-30.8,0-40.4,19.1-40.4,38.7V226h68.8l-11,71.7h-57.8V450H400c26.5,0,48-21.5,48-48V50
	C448,23.5,426.5,2,400,2z"/>
</svg>
