<?xml version="1.0" encoding="utf-8"?>
<!-- Generator: Adobe Illustrator 24.3.0, SVG Export Plug-In . SVG Version: 6.00 Build 0)  -->
<svg version="1.1" id="Layer_1" xmlns="http://www.w3.org/2000/svg" xmlns:xlink="http://www.w3.org/1999/xlink" x="0px" y="0px"
	 viewBox="0 0 833.5 390.7" style="enable-background:new 0 0 833.5 390.7;" xml:space="preserve">
<style type="text/css">
	.st0{fill:#C4E1C2;}
	.st1{fill:#1172B9;}
	.st2{fill:#020000;}
	.st3{font-family:'SourceSansPro-Regular';}
	.st4{font-size:39px;}
	.st5{letter-spacing:-1;}
	.st6{letter-spacing:1;}
	.st7{fill:#C4E1C2;stroke:#C4E1C2;stroke-width:6;stroke-miterlimit:10;}
</style>
<g>
	<path class="st0" d="M786.1,57.2c-8.7-0.1-17.1-3.1-23.8-8.5l-0.6-0.5c-4.8-4-10.3-6.8-16.3-8.5l-0.2-0.1c-1-0.3-1.9-0.5-2.8-0.7
		h-0.1c-1-0.2-2-0.4-3-0.5l-0.4-0.1c-0.8-0.1-1.6-0.2-2.5-0.3l-0.7-0.1c-1.1-0.1-2-0.1-2.8-0.1h-0.1c-0.9,0-1.8,0-2.9,0.1
		c-0.2,0-0.4,0-0.6,0h-0.1c-0.8,0.1-1.6,0.1-2.3,0.2l-0.5,0.1c-1,0.1-1.9,0.3-2.9,0.5h-0.1c-0.9,0.2-1.7,0.4-2.7,0.7l-0.4,0.1
		c-1.9,0.5-3.7,1.2-5.5,2c-0.8,0.4-1.7,0.8-2.6,1.2l-0.1,0.1c-3.2,1.6-6.2,3.7-9,6c-6.7,5.3-14.8,8.1-23.4,8.3h-0.2
		c-8.7-0.1-17.1-3.1-23.8-8.5l-0.6-0.5c-4.8-4-10.3-6.8-16.3-8.5l-0.2-0.1c-1-0.3-1.9-0.5-2.8-0.7h-0.1c-1-0.2-2-0.4-3-0.5l-0.4-0.1
		c-0.8-0.1-1.6-0.2-2.5-0.3L629,38c-1.1-0.1-2-0.1-2.8-0.1h-0.1c-0.9,0-1.8,0-2.9,0.1c-0.2,0-0.4,0-0.6,0h-0.1
		c-0.8,0.1-1.6,0.1-2.3,0.2l-0.5,0.1c-1,0.1-1.9,0.3-2.9,0.5h-0.1c-0.9,0.2-1.7,0.4-2.7,0.6l-0.4,0.1c-1.9,0.5-3.7,1.2-5.5,2
		c-0.8,0.4-1.7,0.8-2.6,1.2l-0.1,0.1c-3.2,1.6-6.2,3.7-9,6c-6.7,5.3-14.8,8.1-23.4,8.3h-0.2c-8.7-0.1-17.1-3.1-23.8-8.5l-0.6-0.5
		c-4.8-4-10.3-6.8-16.3-8.5l-0.2-0.1c-1-0.3-1.9-0.5-2.8-0.7H529c-1-0.2-2-0.4-3-0.5l-0.4-0.1c-0.8-0.1-1.6-0.2-2.5-0.3l-0.7-0.1
		c-1.1-0.1-2-0.1-2.8-0.1h-0.1c-0.9,0-1.8,0-2.9,0.1c-0.2,0-0.4,0-0.6,0h-0.1c-0.8,0.1-1.6,0.1-2.3,0.2l-0.5,0.1
		c-1,0.1-1.9,0.3-2.9,0.5h-0.1c-0.9,0.2-1.7,0.4-2.7,0.6l-0.4,0.1c-1.9,0.5-3.7,1.2-5.5,2c-0.8,0.4-1.7,0.8-2.6,1.2h-0.1
		c-3.2,1.6-6.2,3.7-9,6c-6.7,5.3-14.8,8.1-23.4,8.3h-0.2c-8.7-0.1-17.1-3.1-23.8-8.5l-0.6-0.5c-4.8-4-10.3-6.8-16.3-8.5l-0.2-0.1
		c-1-0.3-1.9-0.5-2.8-0.7h-0.1c-1-0.2-2-0.4-3-0.5l-0.4-0.1c-0.8-0.1-1.6-0.2-2.5-0.3l-0.7-0.1c-1.1-0.1-2-0.1-2.8-0.1h-0.1
		c-0.9,0-1.8,0-2.9,0.1c-0.2,0-0.4,0-0.6,0h-0.1c-0.8,0.1-1.6,0.1-2.3,0.2l-0.5,0.1c-1,0.1-1.9,0.3-2.9,0.5h-0.1
		c-0.9,0.2-1.7,0.4-2.7,0.6l-0.4,0.1c-1.9,0.5-3.7,1.2-5.5,2c-0.8,0.4-1.7,0.8-2.6,1.2h-0.1c-3.2,1.6-6.3,3.7-9,6
		c-6.7,5.3-14.8,8.1-23.4,8.3h-0.2c-8.7-0.1-17.1-3.1-23.8-8.5l-0.6-0.5c-4.8-4-10.3-6.8-16.3-8.5l-0.2-0.1c-1-0.3-1.9-0.5-2.8-0.7
		h-0.1c-1-0.2-2-0.4-3-0.5l-0.4-0.1c-0.8-0.1-1.6-0.2-2.5-0.3l-0.7-0.1c-1.1-0.1-2-0.1-2.8-0.1h-0.1c-0.9,0-1.8,0-2.9,0.1
		c-0.2,0-0.4,0-0.6,0h-0.1c-0.8,0.1-1.6,0.1-2.3,0.2l-0.5,0.1c-1,0.1-1.9,0.3-2.9,0.5h-0.1c-0.9,0.2-1.7,0.4-2.7,0.6l-0.4,0.1
		c-1.9,0.5-3.7,1.2-5.5,2c-0.8,0.4-1.7,0.8-2.6,1.2h-0.1c-3.2,1.6-6.2,3.7-9,6c-6.7,5.3-14.8,8.1-23.4,8.3H253
		c-8.7-0.1-17.1-3.1-23.8-8.5l-0.6-0.5c-4.8-4-10.3-6.8-16.3-8.5l-0.2-0.1c-1-0.3-1.9-0.5-2.8-0.7h-0.1c-1-0.2-2-0.4-3-0.5l-0.4-0.1
		c-0.8-0.1-1.6-0.2-2.5-0.3l-0.7-0.1c-1.1-0.1-2-0.1-2.8-0.1h-0.1c-0.9,0-1.8,0-2.9,0.1c-0.2,0-0.4,0-0.6,0h-0.1
		c-0.8,0.1-1.6,0.1-2.3,0.2l-0.5,0.1c-1,0.1-1.9,0.3-2.9,0.5h-0.1c-0.9,0.2-1.7,0.4-2.7,0.6l-0.4,0.1c-1.9,0.5-3.7,1.2-5.5,2
		c-0.8,0.4-1.7,0.8-2.6,1.2H179c-3.2,1.6-6.3,3.7-9,6c-6.7,5.3-14.8,8.1-23.4,8.3h-0.2c-8.7-0.1-17.1-3.1-23.8-8.5l-0.6-0.5
		c-4.8-4-10.3-6.8-16.3-8.5l-0.2-0.1c-1-0.3-1.9-0.5-2.8-0.7h-0.1c-1-0.2-2-0.4-3-0.5L99.2,37c-0.8-0.1-1.6-0.2-2.5-0.3L95.4,38
		c-1.1-0.1-2-0.1-2.8-0.1h-0.1c-0.9,0-1.8,0-2.9,0.1c-0.2,0-0.4,0-0.6,0h-0.1c-0.8,0.1-1.6,0.1-2.3,0.2L86,38.4
		c-1,0.1-1.9,0.3-2.9,0.5H83c-0.9,0.2-1.7,0.4-2.7,0.6l-0.4,0.1c-1.9,0.5-3.7,1.2-5.5,2c-0.8,0.4-1.7,0.8-2.6,1.2h-0.1
		c-3.2,1.6-6.2,3.7-9,6c-6.8,5.3-14.9,8.2-23.6,8.3h-3v7h3c8.1-0.1,16.1-2.3,22.9-6.3c2-1.1,5.9-4.2,6.3-4.5
		c2.1-1.7,4.3-3.1,6.7-4.3c2.3-1.2,4.8-2.1,7.3-2.8l0.3-0.1c0.4-0.1,0.8-0.2,1.1-0.3l0.6-0.1c0.3-0.1,0.7-0.1,1-0.2
		c0.2,0,0.5-0.1,0.8-0.1c0.3-0.1,0.6-0.1,1-0.1c0.3,0,0.6-0.1,0.9-0.1s0.6-0.1,0.9-0.1s0.7-0.1,1-0.1h0.3c0.2,0,0.3,0,0.5,0
		c0.6,0,1.1,0,1.7,0h0.2c0.6,0,1.1,0,1.7,0H95c0.4,0,0.7,0,1.1,0.1c0.3,0,0.5,0,0.8,0.1c0.3,0,0.7,0.1,1,0.1h0.2
		c0.2,0,0.4,0.1,0.6,0.1c0.3,0,0.6,0.1,0.9,0.1h0.1c0.5,0.1,1,0.2,1.5,0.3l0.2,0.1c0.2,0,0.3,0.1,0.5,0.1c0.3,0.1,0.6,0.2,1,0.3
		c0.2,0.1,0.4,0.1,0.6,0.2c0.3,0.1,0.7,0.2,1,0.3L105,47c0.4,0.1,0.7,0.2,1.1,0.4l0.1,0.1c1.3,0.5,2.6,1,3.9,1.7l0.1,0.1
		c0.4,0.2,0.8,0.4,1.2,0.7h0.1c1.3,0.7,2.5,1.5,3.5,2.3c0,0,0.8,0.6,2.1,1.6l5.5,3.8l0.2,0.1c6.1,3.7,13,5.9,20.1,6.4v0.2h3
		c8.1-0.1,16.1-2.3,22.9-6.3c2-1.1,5.9-4.2,6.3-4.5c2-1.6,4.3-3.1,6.6-4.3l0.1-0.1c2.3-1.2,4.8-2.1,7.3-2.8l0.3-0.1
		c0.4-0.1,0.8-0.2,1.1-0.3l0.6-0.1c0.3-0.1,0.7-0.1,1-0.2c0.2,0,0.5-0.1,0.7-0.1c0.3-0.1,0.6-0.1,1-0.1c0.3,0,0.6-0.1,0.9-0.1
		c0.3,0,0.6-0.1,0.9-0.1c0.3,0,0.7-0.1,1-0.1h0.3c0.2,0,0.3,0,0.5,0c0.6,0,1.1,0,1.7,0h0.2c0.6,0,1.1,0,1.7,0h0.7
		c0.4,0,0.7,0,1.1,0.1c0.3,0,0.5,0,0.8,0.1c0.3,0,0.7,0.1,1,0.1h0.2c0.2,0,0.4,0.1,0.6,0.1c0.3,0,0.6,0.1,0.9,0.2h0.1
		c0.5,0.1,1,0.2,1.5,0.3l0.2,0.1c0.2,0,0.3,0.1,0.5,0.1c0.3,0.1,0.6,0.2,1,0.3c0.2,0.1,0.4,0.1,0.6,0.2c0.3,0.1,0.7,0.2,1,0.3
		l0.5,0.2c0.4,0.1,0.7,0.2,1.1,0.4l0.1,0.1c1.3,0.5,2.6,1,3.8,1.7l0.2,0.1c0.4,0.2,0.8,0.4,1.2,0.6l0.5-0.9c0,0,0.1,0,0.1,0.1
		l-0.4,0.9c1.3,0.7,2.5,1.5,3.6,2.3c0,0,0.8,0.6,2.1,1.6l5.5,3.8l0.2,0.1c6.1,3.7,13,5.9,20.1,6.4v0.2h3c8.1-0.1,16.1-2.3,22.9-6.3
		c2-1.1,5.9-4.2,6.3-4.5c2.1-1.7,4.3-3.1,6.7-4.3c2.3-1.2,4.8-2.1,7.3-2.8l0.3-0.1c0.4-0.1,0.8-0.2,1.1-0.3l0.6-0.1
		c0.3-0.1,0.7-0.1,1-0.2c0.2,0,0.5-0.1,0.8-0.1c0.3-0.1,0.6-0.1,1-0.1c0.3,0,0.6-0.1,0.9-0.1s0.6-0.1,0.9-0.1s0.7-0.1,1-0.1h0.3
		c0.2,0,0.3,0,0.5,0c0.6,0,1.1,0,1.7,0h0.2c0.6,0,1.1,0,1.7,0h0.7c0.4,0,0.7,0,1.1,0.1c0.3,0,0.5,0,0.8,0.1c0.3,0,0.7,0.1,1,0.1h0.2
		c0.2,0,0.4,0.1,0.6,0.1c0.3,0,0.6,0.1,0.9,0.1h0.1c0.5,0.1,1,0.2,1.5,0.3l0.2,0.1c0.2,0,0.3,0.1,0.5,0.1c0.3,0.1,0.6,0.2,1,0.3
		c0.2,0.1,0.4,0.1,0.6,0.2c0.3,0.1,0.7,0.2,1,0.3l0.5,0.2c0.4,0.1,0.7,0.2,1.1,0.4l0.1,0.1c1.3,0.5,2.6,1,3.9,1.7l0.1,0.1
		c0.4,0.2,0.8,0.4,1.2,0.7h0.1c1.3,0.7,2.5,1.5,3.5,2.3c0,0,0.8,0.6,2.1,1.6l5.5,3.8l0.2,0.1c6.1,3.7,13,5.9,20.1,6.4V65h3
		c8.1-0.1,16.1-2.3,22.9-6.3c2-1.1,5.9-4.2,6.3-4.5c2-1.6,4.3-3.1,6.6-4.3l0.1-0.1c2.3-1.2,4.8-2.1,7.3-2.8l0.3-0.1
		c0.4-0.1,0.8-0.2,1.1-0.3l0.6-0.1c0.3-0.1,0.7-0.1,1-0.2c0.2,0,0.5-0.1,0.7-0.1c0.3-0.1,0.6-0.1,1-0.1c0.3,0,0.6-0.1,0.9-0.1
		s0.6-0.1,0.9-0.1s0.7-0.1,1-0.1h0.3c0.2,0,0.3,0,0.5,0c0.6,0,1.1,0,1.7,0h0.2c0.6,0,1.1,0,1.7,0h0.7c0.4,0,0.7,0,1.1,0.1
		c0.3,0,0.5,0,0.8,0.1c0.3,0,0.7,0.1,1,0.1h0.2c0.2,0,0.4,0.1,0.6,0.1c0.3,0,0.6,0.1,0.9,0.2h0.1c0.5,0.1,1,0.2,1.5,0.3l0.2,0.1
		c0.2,0,0.3,0.1,0.5,0.1c0.3,0.1,0.6,0.2,1,0.3c0.2,0.1,0.4,0.1,0.6,0.2c0.3,0.1,0.7,0.2,1,0.3L425,47c0.4,0.1,0.7,0.2,1.1,0.4
		l0.1,0.1c1.3,0.5,2.6,1,3.8,1.7l0.2,0.1c0.4,0.2,0.8,0.4,1.2,0.6l0.5-0.9c0,0,0.1,0,0.1,0.1l-0.4,0.9c1.3,0.7,2.5,1.5,3.6,2.3
		c0,0,0.8,0.6,2.1,1.6l5.5,3.8l0.2,0.1c6.1,3.7,13,5.9,20.1,6.4v0.2h3c8.1-0.1,16.1-2.3,22.9-6.3c2-1.1,5.9-4.2,6.3-4.5
		c2.1-1.7,4.3-3.1,6.7-4.3c2.3-1.2,4.8-2.1,7.3-2.8l0.3-0.1c0.4-0.1,0.8-0.2,1.1-0.3l0.6-0.1c0.3-0.1,0.7-0.1,1-0.2
		c0.2,0,0.5-0.1,0.8-0.1c0.3-0.1,0.6-0.1,1-0.1c0.3,0,0.6-0.1,0.9-0.1c0.3,0,0.6-0.1,0.9-0.1c0.3,0,0.7-0.1,1-0.1h0.3
		c0.2,0,0.3,0,0.5,0c0.6,0,1.1,0,1.7,0h0.2c0.6,0,1.1,0,1.7,0h0.7c0.4,0,0.7,0,1.1,0.1c0.3,0,0.5,0,0.8,0.1c0.3,0,0.7,0.1,1,0.1h0.2
		c0.2,0,0.4,0.1,0.6,0.1c0.3,0,0.6,0.1,0.9,0.1h0.1c0.5,0.1,1,0.2,1.5,0.3l0.2,0.1c0.2,0,0.3,0.1,0.5,0.1c0.3,0.1,0.6,0.2,1,0.3
		c0.2,0.1,0.4,0.1,0.6,0.2c0.3,0.1,0.7,0.2,1,0.3l0.5,0.2c0.4,0.1,0.7,0.2,1.1,0.4l0.1,0.1c1.3,0.5,2.6,1,3.8,1.7l0.2,0.1
		c0.4,0.2,0.8,0.4,1.2,0.6l0.5-0.9c0,0,0.1,0,0.1,0.1l-0.4,0.9c1.3,0.7,2.5,1.5,3.5,2.3c0,0,0.8,0.6,2.1,1.6l5.5,3.8l0.2,0.1
		c6.1,3.7,13,5.9,20.1,6.4v0.2h3c8.1-0.1,16.1-2.3,22.9-6.3c2-1.1,5.9-4.2,6.3-4.5c2.1-1.7,4.3-3.1,6.7-4.3h0.1
		c2.3-1.2,4.7-2.1,7.2-2.8l0.3-0.1c0.4-0.1,0.8-0.2,1.1-0.3l0.6-0.1c0.3-0.1,0.7-0.1,1-0.2c0.2,0,0.5-0.1,0.8-0.1
		c0.3-0.1,0.6-0.1,1-0.1c0.3,0,0.6-0.1,0.9-0.1c0.3,0,0.6-0.1,0.9-0.1c0.3,0,0.7-0.1,1-0.1h0.3c0.2,0,0.3,0,0.5,0c0.6,0,1.1,0,1.7,0
		h0.2c0.6,0,1.1,0,1.7,0h0.7c0.4,0,0.7,0,1.1,0.1c0.3,0,0.5,0,0.8,0.1c0.3,0,0.7,0.1,1,0.1h0.2c0.2,0,0.4,0.1,0.6,0.1
		c0.3,0,0.6,0.1,1,0.2c0.5,0.1,1,0.2,1.5,0.3h0.2c0.2,0,0.3,0.1,0.5,0.1c0.3,0.1,0.6,0.2,1,0.3c0.2,0.1,0.4,0.1,0.6,0.2
		c0.3,0.1,0.7,0.2,1,0.3l0.5,0.2c0.4,0.1,0.7,0.2,1.1,0.4l0.1,0.1c1.3,0.5,2.6,1,3.9,1.7l0.1,0.1c0.4,0.2,0.8,0.4,1.2,0.6l0.1,0.1
		c1.3,0.7,2.5,1.5,3.5,2.3c0,0,0.8,0.6,2.1,1.6l5.5,3.8l0.2,0.1c6.1,3.7,13,5.9,20.1,6.4V65h3c8.1-0.1,16.1-2.3,22.9-6.3
		c2-1.1,5.9-4.2,6.3-4.5c2-1.6,4.2-3,6.5-4.2l0.2-0.1c2.3-1.2,4.7-2.1,7.3-2.8l0.3-0.1c0.4-0.1,0.8-0.2,1.1-0.3l0.6-0.1
		c0.3-0.1,0.7-0.1,1-0.2c0.2,0,0.5-0.1,0.7-0.1c0.3-0.1,0.6-0.1,1-0.1c0.3,0,0.6-0.1,0.9-0.1c0.3,0,0.6-0.1,0.9-0.1
		c0.3,0,0.7-0.1,1-0.1h0.3c0.2,0,0.3,0,0.5,0c0.6,0,1.1,0,1.7,0h0.2c0.6,0,1.1,0,1.7,0h0.7c0.4,0,0.7,0,1.1,0.1c0.3,0,0.5,0,0.8,0.1
		c0.3,0,0.7,0.1,1,0.1h0.2c0.2,0,0.4,0.1,0.6,0.1c0.3,0,0.6,0.1,1,0.2c0.5,0.1,1,0.2,1.5,0.3l0.2,0.1c0.2,0,0.3,0.1,0.5,0.1
		c0.3,0.1,0.6,0.2,1,0.3c0.2,0.1,0.4,0.1,0.6,0.2c0.3,0.1,0.7,0.2,1,0.3l0.5,0.2c0.4,0.1,0.7,0.2,1.1,0.4l0.2,0.1
		c1.3,0.5,2.6,1,3.9,1.7l0.1,0.1c0.4,0.2,0.8,0.4,1.2,0.6l0.5-0.9c0,0,0.1,0,0.1,0.1l-0.4,0.9c1.3,0.7,2.5,1.5,3.5,2.3
		c0,0,0.8,0.6,2.1,1.6l5.5,3.8l0.2,0.1c6.9,4.2,14.9,6.4,23.1,6.6h3v-7L786.1,57.2z"/>
	<path class="st0" d="M763,213.2l-5.7,4c-1.1,0.8-1.9,1.4-1.9,1.4c-1.1,0.8-2.4,1.6-3.6,2.3l-0.1,0.1c-0.4,0.2-0.8,0.4-1.2,0.7
		l-0.1,0.1c-1.2,0.6-2.5,1.2-3.8,1.7l-0.2,0.1c-0.4,0.1-0.7,0.3-1.1,0.4l-0.5,0.2c-0.3,0.1-0.7,0.2-1,0.3l-0.6,0.2l0.3,1h-0.1
		l-0.3-1c-0.3,0.1-0.6,0.2-0.9,0.2c-0.2,0-0.3,0.1-0.5,0.1l-0.2,0.1c-0.5,0.1-1,0.2-1.5,0.3h-0.2c-0.3,0-0.5,0.1-0.8,0.1
		c-0.2,0-0.4,0.1-0.7,0.1h-0.1c-0.3,0-0.6,0.1-1,0.1c-0.3,0-0.5,0.1-0.8,0.1c-0.4,0-0.7,0.1-1.1,0.1h-0.2c-0.2,0-0.3,0-0.5,0
		c-0.6,0-1.1,0-1.8,0h-0.2c-0.6,0-1.1,0-1.7,0c-0.2,0-0.3,0-0.5,0h-0.3c-0.3,0-0.7,0-1-0.1c-0.3,0-0.6-0.1-0.9-0.1
		c-0.3,0-0.6-0.1-0.9-0.1c-0.3,0-0.6-0.1-1-0.1c-0.3,0-0.5-0.1-0.8-0.1c-0.3-0.1-0.7-0.1-1-0.2l-0.6-0.1c-0.4-0.1-0.8-0.2-1.1-0.3
		l-0.3-0.1c-2.5-0.7-5-1.6-7.3-2.8l0,0c-2.3-1.2-4.6-2.6-6.6-4.3c-0.4-0.3-4.3-3.4-6.2-4.5c-6.9-4.1-14.9-6.3-23-6.4h-3v0.2
		c-7.1,0.5-14,2.7-20.1,6.4l-5.7,4c-1.1,0.8-1.9,1.4-1.9,1.4c-1.1,0.8-2.4,1.6-3.6,2.3l-0.1,0.1c-0.4,0.2-0.8,0.4-1.2,0.7l-0.1,0.1
		c-1.2,0.6-2.5,1.2-3.8,1.7l-0.2,0.1c-0.4,0.1-0.7,0.3-1.1,0.4l-0.5,0.2c-0.3,0.1-0.7,0.2-1,0.3l-0.6,0.2l0.3,1h-0.1l-0.3-1
		c-0.3,0.1-0.6,0.2-0.9,0.2c-0.2,0-0.4,0.1-0.5,0.1h-0.2c-0.5,0.1-1,0.2-1.5,0.3h-0.2c-0.3,0-0.5,0.1-0.8,0.1
		c-0.2,0-0.4,0.1-0.6,0.1h-0.2c-0.3,0-0.6,0.1-1,0.1c-0.3,0-0.5,0.1-0.8,0.1c-0.4,0-0.7,0.1-1.1,0.1h-0.2c-0.2,0-0.3,0-0.5,0
		c-0.6,0-1.1,0-1.8,0h-0.2c-0.6,0-1.1,0-1.7,0c-0.2,0-0.3,0-0.5,0h-0.3c-0.3,0-0.7,0-1-0.1c-0.3,0-0.6-0.1-0.9-0.1
		c-0.3,0-0.6-0.1-0.9-0.1c-0.3,0-0.6-0.1-1-0.1c-0.3,0-0.5-0.1-0.8-0.1c-0.3-0.1-0.7-0.1-1-0.2l-0.6-0.1c-0.4-0.1-0.8-0.2-1.1-0.3
		l-0.3-0.1c-2.5-0.7-5-1.6-7.3-2.8c-2.4-1.2-4.6-2.6-6.7-4.3c-0.4-0.3-4.3-3.4-6.2-4.5c-6.9-4.1-14.9-6.3-23-6.4h-3v0.2
		c-7.1,0.5-14,2.7-20.1,6.4l-5.7,4c-1.1,0.8-1.9,1.4-1.9,1.4c-1.1,0.8-2.4,1.6-3.7,2.3l-0.1,0.1c-0.4,0.2-0.8,0.4-1.2,0.7l-0.1,0.1
		c-1.2,0.6-2.5,1.2-3.8,1.7l-0.2,0.1c-0.4,0.1-0.7,0.3-1.1,0.4l-0.5,0.2c-0.3,0.1-0.7,0.2-1,0.3l-0.7,0.2c-0.3,0.1-0.6,0.2-0.9,0.2
		c-0.2,0-0.4,0.1-0.5,0.1h-0.2c-0.5,0.1-1,0.2-1.5,0.3h-0.2c-0.3,0-0.5,0.1-0.8,0.1c-0.2,0-0.4,0.1-0.6,0.1h-0.2
		c-0.3,0-0.6,0.1-1,0.1c-0.3,0-0.5,0.1-0.8,0.1c-0.4,0-0.7,0.1-1.1,0.1h-0.2c-0.2,0-0.3,0-0.5,0c-0.6,0-1.1,0-1.8,0H519
		c-0.6,0-1.1,0-1.7,0c-0.2,0-0.3,0-0.5,0h-0.3c-0.3,0-0.7,0-1-0.1c-0.3,0-0.6-0.1-0.9-0.1c-0.3,0-0.6-0.1-0.9-0.1
		c-0.3,0-0.6-0.1-1-0.1c-0.3,0-0.5-0.1-0.7-0.1c-0.3-0.1-0.7-0.1-1-0.2l-0.6-0.1c-0.4-0.1-0.8-0.2-1.1-0.3l-0.3-0.1
		c-2.5-0.7-5-1.6-7.3-2.8h-0.1c-2.3-1.2-4.6-2.6-6.6-4.3c-0.4-0.3-4.3-3.4-6.2-4.5c-6.9-4.1-14.9-6.3-23-6.4h-3v0.2
		c-7.1,0.5-14,2.7-20.1,6.4l-5.7,4c-1.1,0.8-1.9,1.4-1.9,1.4c-1.1,0.8-2.4,1.6-3.6,2.3l-0.1,0.1c-0.4,0.2-0.8,0.4-1.2,0.7l-0.1,0.1
		c-1.2,0.6-2.5,1.2-3.8,1.7l-0.2,0.1c-0.4,0.1-0.7,0.3-1.1,0.4l-0.5,0.2c-0.3,0.1-0.7,0.2-1,0.3l-0.5,0.2l0.3,1h-0.1l-0.3-1
		c-0.3,0.1-0.6,0.2-0.9,0.2c-0.2,0-0.4,0.1-0.5,0.1l-0.2,0.1c-0.5,0.1-1,0.2-1.5,0.3h-0.2c-0.3,0-0.5,0.1-0.8,0.1
		c-0.2,0-0.4,0.1-0.6,0.1H418c-0.3,0-0.6,0.1-1,0.1c-0.3,0-0.5,0.1-0.8,0.1c-0.4,0-0.7,0.1-1.1,0.1h-0.2c-0.2,0-0.3,0-0.5,0
		c-0.6,0-1.1,0-1.8,0h-0.2c-0.6,0-1.1,0-1.7,0c-0.2,0-0.3,0-0.5,0h-0.3c-0.3,0-0.7,0-1-0.1c-0.3,0-0.6-0.1-0.9-0.1s-0.6-0.1-0.9-0.1
		s-0.6-0.1-1-0.1c-0.3,0-0.5-0.1-0.7-0.1c-0.3-0.1-0.7-0.1-1-0.2l-0.6-0.1c-0.4-0.1-0.8-0.2-1.1-0.3l-0.3-0.1
		c-2.5-0.7-5-1.6-7.3-2.8H395c-2.3-1.2-4.6-2.6-6.6-4.3c-0.4-0.3-4.3-3.4-6.2-4.5c-6.9-4.1-14.9-6.3-23-6.4h-3v0.2
		c-7.1,0.5-14,2.7-20.1,6.4l-5.7,4c-1.1,0.8-1.9,1.4-1.9,1.4c-1.2,0.8-2.4,1.6-3.7,2.3l-0.1,0.1c-0.4,0.2-0.8,0.4-1.3,0.7l-0.1,0.1
		c-1.2,0.6-2.5,1.2-3.8,1.7l-0.2,0.1c-0.4,0.1-0.7,0.3-1.1,0.4l-0.5,0.2c-0.3,0.1-0.7,0.2-1,0.3l-0.6,0.2l0.3,1c0,0,0,0-0.1,0
		l-0.3-1c-0.3,0.1-0.6,0.2-0.9,0.2c-0.2,0-0.4,0.1-0.5,0.1l-0.2,0.1c-0.5,0.1-1,0.2-1.5,0.3h-0.2c-0.3,0-0.5,0.1-0.8,0.1
		c-0.2,0-0.4,0.1-0.6,0.1h-0.1c-0.3,0-0.6,0.1-1,0.1c-0.3,0-0.5,0.1-0.8,0.1c-0.4,0-0.7,0.1-1.1,0.1h-0.7c-0.6,0-1.1,0-1.8,0h-0.2
		c-0.6,0-1.1,0-1.7,0c-0.2,0-0.3,0-0.5,0h-0.3c-0.3,0-0.7,0-1-0.1c-0.3,0-0.6-0.1-0.9-0.1s-0.6-0.1-0.9-0.1s-0.6-0.1-1-0.1
		c-0.3,0-0.5-0.1-0.7-0.1c-0.3-0.1-0.7-0.1-1-0.2l-0.6-0.1c-0.4-0.1-0.8-0.2-1.1-0.3l-0.3-0.1c-2.5-0.7-5-1.6-7.3-2.8h-0.1
		c-2.3-1.2-4.6-2.6-6.6-4.3c-0.4-0.3-4.3-3.4-6.2-4.5c-6.9-4.1-14.9-6.3-23-6.4h-3v0.2c-7.1,0.5-14,2.7-20.1,6.4l-5.7,4
		c-1.1,0.8-1.9,1.4-1.9,1.4c-1.1,0.8-2.4,1.6-3.6,2.3l-0.1,0.1c-0.4,0.2-0.8,0.4-1.2,0.7l-0.1,0.1c-1.2,0.6-2.5,1.2-3.8,1.7
		l-0.2,0.1c-0.4,0.1-0.7,0.3-1.1,0.4l-0.5,0.2c-0.3,0.1-0.7,0.2-1,0.3l-0.5,0.2l0.3,1h-0.1l-0.3-1c-0.3,0.1-0.6,0.2-0.9,0.2
		c-0.2,0-0.4,0.1-0.5,0.1l-0.2,0.1c-0.5,0.1-1,0.2-1.5,0.3h-0.2c-0.3,0-0.5,0.1-0.8,0.1c-0.2,0-0.4,0.1-0.6,0.1h-0.2
		c-0.3,0-0.6,0.1-1,0.1c-0.3,0-0.5,0.1-0.8,0.1c-0.4,0-0.7,0.1-1.1,0.1h-0.2c-0.2,0-0.3,0-0.5,0c-0.6,0-1.1,0-1.8,0H199
		c-0.6,0-1.1,0-1.7,0c-0.2,0-0.3,0-0.5,0h-0.3c-0.3,0-0.7,0-1-0.1c-0.3,0-0.6-0.1-0.9-0.1c-0.3,0-0.6-0.1-0.9-0.1
		c-0.3,0-0.6-0.1-1-0.1c-0.3,0-0.5-0.1-0.7-0.1c-0.3-0.1-0.7-0.1-1-0.2l-0.6-0.1c-0.4-0.1-0.8-0.2-1.1-0.3L189,225
		c-2.5-0.7-5-1.6-7.3-2.8h-0.1c-2.3-1.2-4.6-2.6-6.6-4.3c-0.4-0.3-4.3-3.4-6.2-4.5c-6.9-4.1-14.9-6.3-23-6.4h-3v0.2
		c-7.1,0.5-14,2.7-20.1,6.4l-5.7,4c-1.1,0.8-1.9,1.4-1.9,1.4c-1.2,0.8-2.4,1.6-3.7,2.3l-0.1,0.1c-0.4,0.2-0.8,0.4-1.3,0.7l-0.1,0.1
		c-1.2,0.6-2.5,1.2-3.8,1.7l-0.2,0.1c-0.4,0.1-0.7,0.3-1.1,0.4l-0.5,0.2c-0.3,0.1-0.7,0.2-1,0.3l-0.6,0.2l0.3,1c0,0,0,0-0.1,0
		l-0.3-1c-0.3,0.1-0.6,0.2-0.9,0.2c-0.2,0-0.4,0.1-0.5,0.1L101,225c-0.5,0.1-1,0.2-1.5,0.3h-0.2c-0.3,0-0.5,0.1-0.8,0.1
		c-0.2,0-0.4,0.1-0.6,0.1h-0.1c-0.3,0-0.6,0.1-1,0.1c-0.3,0-0.5,0.1-0.8,0.1c-0.4,0-0.7,0.1-1.1,0.1h-0.7c-0.6,0-1.1,0-1.8,0h-0.2
		c-0.6,0-1.1,0-1.7,0c-0.2,0-0.3,0-0.5,0h-0.3c-0.3,0-0.7,0-1-0.1c-0.3,0-0.6-0.1-0.9-0.1s-0.6-0.1-0.9-0.1s-0.6-0.1-1-0.1
		c-0.3,0-0.5-0.1-0.7-0.1c-0.3-0.1-0.7-0.1-1-0.2l-0.6-0.1c-0.4-0.1-0.8-0.2-1.1-0.3l-0.3-0.1c-2.5-0.7-5-1.6-7.3-2.8h-0.1
		c-2.3-1.2-4.6-2.6-6.6-4.3c-0.4-0.3-4.3-3.4-6.2-4.5c-6.9-4.1-14.9-6.3-23-6.4h-3v7h3c8.7,0.1,16.9,2.9,23.6,8.3
		c2.7,2.4,5.8,4.4,9,6l0.1,0.1c0.9,0.4,1.7,0.8,2.6,1.2h0.1c1.8,0.8,3.6,1.4,5.5,1.9l0.5,0.1c1,0.3,1.8,0.5,2.6,0.6h0.1
		c0.9,0.2,1.9,0.4,2.9,0.5l0.5,0.1c0.8,0.1,1.6,0.2,2.3,0.2l0.7,0.1c1,0.1,1.9,0.1,2.8,0.1h0.1c0.9,0,1.8,0,2.9-0.1
		c0.2,0,0.4,0,0.7-0.1c0.8-0.1,1.7-0.2,2.5-0.3h0.4c1-0.1,2-0.3,3-0.5h0.1c0.9-0.2,1.8-0.4,2.9-0.7h0.2c6-1.7,11.5-4.6,16.3-8.5
		l0.6-0.5c6.7-5.4,15.1-8.4,23.8-8.5h0.2c8.6,0.1,16.7,3,23.4,8.3c2.7,2.4,5.8,4.4,9,6l0.1,0.1c0.9,0.4,1.7,0.8,2.6,1.2h0.1
		c1.8,0.8,3.6,1.4,5.5,1.9l0.5,0.1c1,0.3,1.8,0.5,2.6,0.6h0.1c0.9,0.2,1.9,0.4,2.9,0.5l0.5,0.1c0.8,0.1,1.6,0.2,2.3,0.2l0.7,0.1
		c1,0.1,1.9,0.1,2.8,0.1h0.1c0.9,0,1.8,0,2.9-0.1c0.2,0,0.4,0,0.7-0.1c0.8-0.1,1.7-0.2,2.5-0.3h0.4c1-0.1,2-0.3,3-0.5h0.1
		c0.9-0.2,1.8-0.4,2.9-0.7h0.2c6-1.7,11.5-4.6,16.3-8.5l0.6-0.5c6.7-5.4,15.1-8.4,23.8-8.5h0.2c8.6,0.1,16.7,3,23.4,8.3
		c2.7,2.4,5.8,4.4,9,6l0.1,0.1c0.9,0.4,1.7,0.8,2.6,1.2h0.1c1.8,0.8,3.6,1.4,5.5,1.9l0.5,0.1c1,0.3,1.8,0.5,2.6,0.6h0.1
		c0.9,0.2,1.9,0.4,2.9,0.5l0.5,0.1c0.8,0.1,1.6,0.2,2.3,0.2l0.7,0.1c1,0.1,1.9,0.1,2.8,0.1h0.1c0.9,0,1.8,0,2.9-0.1
		c0.2,0,0.4,0,0.7-0.1c0.8-0.1,1.7-0.2,2.5-0.3h0.4c1-0.1,2-0.3,3-0.5h0.1c0.9-0.2,1.8-0.4,2.9-0.7h0.2c6-1.7,11.5-4.6,16.3-8.5
		l0.6-0.5c6.7-5.4,15.1-8.4,23.8-8.5h0.2c8.6,0.1,16.7,3,23.4,8.3c2.7,2.4,5.8,4.4,9,6l0.1,0.1c0.9,0.4,1.7,0.8,2.6,1.2h0.1
		c1.8,0.8,3.6,1.4,5.5,1.9l0.5,0.1c1,0.3,1.8,0.5,2.6,0.6h0.1c0.9,0.2,1.9,0.4,2.9,0.5l0.5,0.1c0.8,0.1,1.6,0.2,2.3,0.2l0.7,0.1
		c1,0.1,1.9,0.1,2.8,0.1h0.1c0.9,0,1.8,0,2.9-0.1c0.2,0,0.4,0,0.7-0.1c0.8-0.1,1.7-0.2,2.5-0.3h0.4c1-0.1,2-0.3,3-0.5h0.1
		c0.9-0.2,1.8-0.4,2.9-0.7h0.2c6-1.7,11.5-4.6,16.3-8.5l0.6-0.5c6.7-5.4,15.1-8.4,23.8-8.5h0.2c8.6,0.1,16.7,3,23.4,8.3
		c2.7,2.4,5.8,4.4,9,6l0.1,0.1c0.9,0.4,1.7,0.8,2.6,1.2h0.1c1.8,0.8,3.6,1.4,5.5,1.9l0.5,0.1c1,0.3,1.8,0.5,2.6,0.6h0.1
		c0.9,0.2,1.9,0.4,2.9,0.5l0.5,0.1c0.8,0.1,1.6,0.2,2.3,0.2l0.7,0.1c1,0.1,1.9,0.1,2.8,0.1h0.1c0.9,0,1.8,0,2.9-0.1
		c0.2,0,0.4,0,0.7-0.1c0.8-0.1,1.7-0.2,2.5-0.3h0.4c1-0.1,2-0.3,3-0.5h0.1c0.9-0.2,1.8-0.4,2.9-0.7h0.2c6-1.7,11.5-4.6,16.3-8.5
		l0.6-0.5c6.7-5.4,15.1-8.4,23.8-8.5h0.2c8.6,0.1,16.7,3,23.4,8.3c2.7,2.4,5.8,4.4,9,6l0.1,0.1c0.9,0.4,1.7,0.8,2.6,1.2h0.1
		c1.8,0.7,3.6,1.4,5.5,1.9l0.5,0.1c1,0.3,1.8,0.5,2.6,0.6h0.1c0.9,0.2,1.9,0.4,2.9,0.5l0.5,0.1c0.8,0.1,1.6,0.2,2.3,0.2l0.7,0.1
		c1,0.1,1.9,0.1,2.8,0.1h0.1c0.9,0,1.8,0,2.9-0.1c0.2,0,0.4,0,0.7-0.1c0.8-0.1,1.7-0.2,2.5-0.3h0.4c1-0.1,2-0.3,3-0.5h0.1
		c0.9-0.2,1.8-0.4,2.9-0.7h0.2c6-1.7,11.5-4.6,16.3-8.5l0.6-0.5c6.7-5.4,15.1-8.4,23.8-8.5h0.2c8.6,0.1,16.7,3,23.4,8.3
		c2.7,2.4,5.8,4.4,9,6l0.1,0.1c0.9,0.4,1.7,0.8,2.6,1.2h0.1c1.8,0.8,3.6,1.4,5.5,1.9l0.5,0.1c1,0.3,1.8,0.5,2.6,0.6h0.1
		c0.9,0.2,1.9,0.4,2.9,0.5l0.5,0.1c0.8,0.1,1.6,0.2,2.3,0.2l0.7,0.1c1,0.1,1.9,0.1,2.8,0.1h0.1c0.9,0,1.8,0,2.9-0.1
		c0.2,0,0.4,0,0.7-0.1c0.8-0.1,1.7-0.2,2.5-0.3h0.4c1-0.1,2-0.3,3-0.5h0.1c0.9-0.2,1.8-0.4,2.9-0.7h0.2c6-1.7,11.5-4.6,16.3-8.5
		l0.6-0.5c6.7-5.4,15.1-8.4,23.8-8.5h3v-7h-3C777.9,206.8,769.9,209,763,213.2z"/>
</g>
<polygon class="st1" points="755.6,90.1 738.6,119.9 721.4,90.1 701.9,90.1 729,144 729,177 747.4,177 747.4,144 775.5,90.1 "/>
<polygon class="st1" points="534.4,158.4 534.4,90.1 516.2,90.1 516.2,177 527.1,177 534.4,177 581.7,177 581.7,158.4 "/>
<polygon class="st1" points="676.4,90.1 606.4,90.1 606.4,107.6 631.8,107.6 631.8,177 650.4,177 650.4,107.6 676.4,107.6 "/>
<path class="st1" d="M385.9,110.6l-18.1,3.6c0,0-4.7-6-16.7-6s-12.3,6-12.3,6s-1.3,6.5,5.4,8.6c6.6,2,43,7.2,43,31.3
	c0,23.6-35.7,23-35.7,23s-34.1,0.9-36.8-26l18.8,0.1c0,0,6.3,9.5,19.6,9.5c13.3,0,14.9-5.5,14.9-8.5c0-4.2-7-6.7-17.4-8.5
	c-13.4-2.3-30.7-10.6-30.7-29.6s17.9-23.8,34.1-23.8C366.7,90.1,381.6,97.1,385.9,110.6z"/>
<path class="st1" d="M473.5,90.1v9c-6.4-5.3-14.3-8.5-22.9-8.5c-21.1,0-38.2,19.1-38.2,42.7s17.1,42.7,38.2,42.7
	c8.6,0,16.5-3.2,22.9-8.5v9.5h18.8V90.1H473.5z M450.7,158.4c-12,0-21.6-11.1-21.6-24.9s9.7-24.9,21.6-24.9s21.6,11.1,21.6,24.9
	S462.6,158.4,450.7,158.4z"/>
<g>
	<path class="st2" d="M134.9,311c-3.1,0-5.6-0.4-7.6-1.3s-3.4-2-4.3-3.5c-1-1.5-1.5-3.2-1.7-5h3.7c0.1,1.5,0.6,2.7,1.5,3.7
		c0.9,0.9,2.1,1.6,3.6,2.1c1.5,0.4,3.2,0.7,5,0.7c2.7,0,4.8-0.5,6.3-1.4c1.6-0.9,2.3-2.3,2.3-4.2c0-1.1-0.4-2-1.2-2.7
		s-1.8-1.2-3.1-1.7c-1.3-0.4-2.7-0.8-4.2-1.2c-1.5-0.4-3-0.8-4.6-1.2c-1.5-0.4-2.9-0.9-4.2-1.6s-2.3-1.5-3.1-2.4
		c-0.8-1-1.2-2.3-1.2-3.8c0-2.6,1-4.7,3-6.3c2-1.6,4.9-2.4,8.9-2.4c2.8,0,5.1,0.4,6.9,1.3c1.8,0.8,3.2,1.9,4.1,3.3
		c0.9,1.4,1.4,2.8,1.5,4.4h-3.7c-0.2-1.6-1-2.9-2.4-4s-3.5-1.6-6.4-1.6c-1.8,0-3.2,0.2-4.3,0.5s-2,0.8-2.5,1.4
		c-0.6,0.6-1,1.1-1.2,1.7s-0.3,1.2-0.3,1.7c0,1,0.4,1.9,1.2,2.5c0.8,0.6,1.8,1.2,3.1,1.6s2.7,0.8,4.3,1.2c1.6,0.3,3.1,0.7,4.6,1.2
		c1.5,0.4,2.9,1,4.2,1.6s2.3,1.5,3.1,2.5s1.2,2.3,1.2,3.9c0,2.9-1.1,5.2-3.3,6.7C141.9,310.2,138.8,311,134.9,311z"/>
	<path class="st2" d="M166.5,310.6v-31.5h3.6v16.4l17.5-16.4h5l-13.4,12.6l14.2,18.8h-4.5l-12.3-16.4l-6.5,6.1v10.3h-3.6V310.6z"/>
	<path class="st2" d="M210.6,310.6v-31.5h3.6v31.5H210.6z"/>
	<path class="st2" d="M235.4,310.6v-31.5h4.1l19.4,26.5v-26.5h3.6v31.5h-4.1L239,284.1v26.6h-3.6V310.6z"/>
	<path class="st2" d="M297.1,311c-3.1,0-5.8-0.7-8.1-2.2c-2.3-1.4-4-3.4-5.3-5.8c-1.2-2.4-1.8-5.1-1.8-8.1s0.6-5.7,1.8-8.1
		c1.2-2.4,3-4.4,5.3-5.8s5-2.2,8.1-2.2c2.4,0,4.5,0.4,6.4,1.3c1.9,0.8,3.5,2,4.8,3.4c1.3,1.5,2.3,3.2,3,5.1h-3.8
		c-0.8-1.9-2-3.5-3.8-4.6c-1.7-1.1-3.9-1.7-6.5-1.7c-2.5,0-4.7,0.6-6.5,1.7s-3.1,2.6-4.1,4.5c-0.9,1.9-1.4,4-1.4,6.4
		c0,2.3,0.5,4.5,1.4,6.4s2.3,3.4,4.1,4.6c1.8,1.1,4,1.7,6.5,1.7c2.6,0,4.8-0.6,6.5-1.7s3-2.7,3.8-4.6h3.8c-0.7,1.9-1.7,3.6-3,5.1
		s-2.9,2.6-4.8,3.5C301.6,310.6,299.4,311,297.1,311z"/>
	<path class="st2" d="M326.5,310.6l13.4-31.5h4.5l13.4,31.5h-3.9l-3.9-9.1h-15.6l-3.8,9.1H326.5z M335.7,298.2h12.8l-6.4-15.4
		L335.7,298.2z"/>
	<path class="st2" d="M375.3,310.6v-31.5h15.1c3.2,0,5.8,0.9,7.7,2.7c1.9,1.8,2.9,4.2,2.9,7.2c0,2-0.4,3.6-1.2,4.8
		c-0.8,1.2-1.8,2.1-2.9,2.7c-1.2,0.6-2.3,1.1-3.5,1.4l8.3,12.7h-4.2l-7.6-12.1H379v12.1L375.3,310.6L375.3,310.6z M378.9,295.2h10.9
		c1.1,0,2.3-0.2,3.5-0.5s2.2-1,3-1.9s1.2-2.2,1.2-3.8c0-2-0.7-3.6-2-4.7c-1.4-1.2-3.2-1.7-5.4-1.7H379v12.6H378.9z"/>
	<path class="st2" d="M420.7,310.6v-31.5h23.1v3.4h-19.6v10.6h17.5v3.5h-17.5v10.6h19.6v3.4H420.7z"/>
	<path class="st2" d="M498.1,311c-3.1,0-5.6-0.4-7.6-1.3s-3.4-2-4.3-3.5c-1-1.5-1.5-3.2-1.7-5h3.7c0.1,1.5,0.6,2.7,1.5,3.7
		c0.9,0.9,2.1,1.6,3.6,2.1s3.2,0.7,5,0.7c2.7,0,4.8-0.5,6.3-1.4c1.6-0.9,2.3-2.3,2.3-4.2c0-1.1-0.4-2-1.2-2.7
		c-0.8-0.7-1.8-1.2-3.1-1.7c-1.3-0.4-2.7-0.8-4.2-1.2c-1.5-0.4-3-0.8-4.6-1.2c-1.5-0.4-2.9-0.9-4.2-1.6s-2.3-1.5-3.1-2.4
		s-1.2-2.3-1.2-3.8c0-2.6,1-4.7,3-6.3c2-1.6,4.9-2.4,8.9-2.4c2.8,0,5.1,0.4,6.9,1.3c1.8,0.8,3.2,1.9,4.1,3.3s1.4,2.8,1.5,4.4H506
		c-0.2-1.6-1-2.9-2.4-4s-3.5-1.6-6.4-1.6c-1.8,0-3.2,0.2-4.3,0.5c-1.1,0.3-2,0.8-2.5,1.4c-0.6,0.6-1,1.1-1.2,1.7s-0.3,1.2-0.3,1.7
		c0,1,0.4,1.9,1.2,2.5c0.8,0.6,1.8,1.2,3.1,1.6s2.7,0.8,4.3,1.2c1.6,0.3,3.1,0.7,4.6,1.2s2.9,1,4.2,1.6s2.3,1.5,3.1,2.5
		c0.8,1,1.2,2.3,1.2,3.9c0,2.9-1.1,5.2-3.3,6.7C505.1,310.2,502,311,498.1,311z"/>
	<path class="st2" d="M537.5,310.6v-28.1h-11v-3.4H552v3.4h-11v28.1H537.5z"/>
	<path class="st2" d="M583.1,311c-2.6,0-4.9-0.6-6.9-1.7c-2-1.2-3.6-2.8-4.7-4.9c-1.1-2.1-1.7-4.5-1.7-7.3v-17.9h3.6v18
		c0,2.4,0.5,4.4,1.4,5.9s2.2,2.6,3.7,3.4s3.1,1.1,4.7,1.1c1.7,0,3.3-0.4,4.8-1.1s2.7-1.8,3.7-3.4c1-1.5,1.4-3.5,1.4-5.9v-18h3.6
		v17.9c0,2.8-0.6,5.2-1.7,7.3c-1.1,2.1-2.7,3.7-4.7,4.9S585.8,311,583.1,311z"/>
	<path class="st2" d="M617.4,310.6v-31.5h13.3c1.9,0,3.7,0.4,5.4,1.1s3.3,1.8,4.6,3.1c1.4,1.4,2.4,3,3.2,4.9s1.2,4.1,1.2,6.6
		s-0.4,4.7-1.2,6.6s-1.9,3.6-3.2,4.9c-1.4,1.4-2.9,2.4-4.6,3.1s-3.5,1.1-5.4,1.1L617.4,310.6L617.4,310.6z M621,307.3h9.6
		c2.2,0,4.2-0.6,5.8-1.7s2.9-2.6,3.8-4.5c0.9-1.9,1.4-3.9,1.4-6.1c0-2.3-0.5-4.3-1.4-6.2c-0.9-1.9-2.2-3.4-3.8-4.5s-3.6-1.7-5.8-1.7
		H621V307.3z"/>
	<path class="st2" d="M664.4,310.6v-31.5h3.6v31.5H664.4z"/>
	<path class="st2" d="M703.3,311c-2.4,0-4.5-0.4-6.5-1.2c-2-0.8-3.7-2-5.1-3.5c-1.4-1.5-2.5-3.2-3.3-5.2c-0.8-1.9-1.1-4-1.1-6.3
		s0.4-4.3,1.1-6.3s1.8-3.6,3.3-5.1c1.4-1.5,3.1-2.6,5.1-3.5c2-0.8,4.1-1.2,6.5-1.2s4.5,0.4,6.5,1.2c2,0.8,3.7,2,5.1,3.5
		c1.4,1.5,2.5,3.2,3.3,5.1s1.1,4,1.1,6.3c0,2.2-0.4,4.3-1.1,6.3c-0.8,1.9-1.8,3.7-3.3,5.2c-1.4,1.5-3.1,2.6-5.1,3.5
		C707.8,310.6,705.6,311,703.3,311z M703.3,307.6c2.6,0,4.8-0.6,6.6-1.7c1.9-1.1,3.3-2.6,4.3-4.6s1.5-4,1.5-6.4s-0.5-4.5-1.5-6.4
		s-2.4-3.4-4.3-4.5c-1.9-1.1-4.1-1.7-6.6-1.7s-4.7,0.6-6.6,1.7c-1.9,1.1-3.3,2.6-4.3,4.5s-1.5,4-1.5,6.4c0,2.3,0.5,4.5,1.5,6.4
		s2.4,3.4,4.3,4.6C698.5,307,700.7,307.6,703.3,307.6z"/>
</g>
<g>
	<g>
		<path class="st1" d="M139.9,355.9c1.6,1.3,3.3,2.3,5.6,2.3c2.5,0,3.7-1.3,3.7-3c0-2-2.3-2.8-4.3-3.6c-2.7-1-5.7-2.3-5.7-5.5
			c0-3,2.4-5.4,6.5-5.4c2.4,0,4.4,1,5.9,2.1l-1.5,2c-1.3-1-2.7-1.7-4.3-1.7c-2.4,0-3.5,1.3-3.5,2.7c0,1.8,2.1,2.5,4.2,3.3
			c2.7,1,5.8,2.1,5.8,5.7c0,3.1-2.5,5.7-6.9,5.7c-2.7,0-5.3-1.1-7.1-2.6L139.9,355.9z"/>
		<path class="st1" d="M170.7,348.2c0-2.4-0.8-4.8-3.9-4.8c-2.2,0-4.2,1-5.7,2l-1.3-2.2c1.8-1.1,4.4-2.5,7.4-2.5
			c4.6,0,6.6,3.1,6.6,7.8v11.6h-2.7l-0.3-2.3h-0.1c-1.8,1.5-3.9,2.7-6.3,2.7c-3.2,0-5.6-2-5.6-5.4
			C159,351.1,162.6,349.1,170.7,348.2z M165.5,358.1c1.8,0,3.4-0.9,5.2-2.5v-5.3c-6.4,0.8-8.5,2.3-8.5,4.8
			C162.2,357.2,163.6,358.1,165.5,358.1z"/>
		<path class="st1" d="M183.1,332.4h3.2v24.2c0,1,0.4,1.4,0.9,1.4c0.2,0,0.4,0,0.7-0.1l0.4,2.4c-0.4,0.2-1,0.3-1.8,0.3
			c-2.4,0-3.4-1.5-3.4-4.3L183.1,332.4L183.1,332.4z"/>
		<path class="st1" d="M196.8,343.8H194v-2.4l3-0.2l0.4-5.3h2.7v5.3h5.1v2.6H200v10.5c0,2.3,0.7,3.7,2.9,3.7c0.7,0,1.5-0.3,2.1-0.5
			l0.6,2.4c-1.1,0.4-2.3,0.7-3.5,0.7c-4.1,0-5.4-2.6-5.4-6.3L196.8,343.8L196.8,343.8z"/>
		<path class="st1" d="M223.7,341.2h2.7l0.3,3.4h0.1c1.3-2.4,3.2-3.9,5.4-3.9c0.8,0,1.4,0.1,2,0.4l-0.6,2.8
			c-0.6-0.2-1.1-0.3-1.8-0.3c-1.6,0-3.5,1.2-4.8,4.4v12.2h-3.2L223.7,341.2L223.7,341.2z"/>
		<path class="st1" d="M247.4,340.8c4.6,0,8.8,3.6,8.8,10c0,6.3-4.1,9.9-8.8,9.9s-8.8-3.6-8.8-9.9
			C238.6,344.4,242.8,340.8,247.4,340.8z M247.4,358c3.3,0,5.5-2.9,5.5-7.3s-2.2-7.3-5.5-7.3c-3.2,0-5.5,3-5.5,7.3
			C241.9,355.1,244.2,358,247.4,358z"/>
		<path class="st1" d="M271.7,340.8c4.6,0,8.8,3.6,8.8,10c0,6.3-4.1,9.9-8.8,9.9s-8.8-3.6-8.8-9.9
			C263,344.4,267.1,340.8,271.7,340.8z M271.7,358c3.3,0,5.5-2.9,5.5-7.3s-2.2-7.3-5.5-7.3c-3.2,0-5.5,3-5.5,7.3
			C266.3,355.1,268.5,358,271.7,358z"/>
		<path class="st1" d="M288.7,341.2h2.7l0.3,2.7h0.1c1.6-1.8,3.6-3.2,5.9-3.2c2.9,0,4.4,1.4,5.2,3.6c2-2.1,3.9-3.6,6.2-3.6
			c3.9,0,5.8,2.6,5.8,7.4v12h-3.2v-11.6c0-3.5-1.1-5.1-3.5-5.1c-1.5,0-3,1-4.8,2.9V360h-3.2v-11.6c0-3.5-1.1-5.1-3.5-5.1
			c-1.4,0-3,1-4.8,2.9v13.7h-3.2V341.2z"/>
		<path class="st1" d="M370.5,335c-0.7-0.3-1.4-0.5-2.1-0.5c-1.8,0-2.7,1.2-2.7,3.7v3h4v2.6h-4v16.3h-3.2v-16.3h-2.6v-2.4l2.6-0.2
			v-3c0-3.9,1.8-6.3,5.5-6.3c1.2,0,2.3,0.3,3.2,0.6L370.5,335z"/>
		<path class="st1" d="M386.5,348.2c0-2.4-0.8-4.8-3.9-4.8c-2.2,0-4.2,1-5.7,2l-1.3-2.2c1.8-1.1,4.4-2.5,7.4-2.5
			c4.6,0,6.6,3.1,6.6,7.8v11.6H387l-0.3-2.3h-0.1c-1.8,1.5-3.9,2.7-6.3,2.7c-3.2,0-5.6-2-5.6-5.4
			C374.8,351.1,378.4,349.1,386.5,348.2z M381.3,358.1c1.8,0,3.4-0.9,5.2-2.5v-5.3c-6.4,0.8-8.5,2.3-8.5,4.8
			C378,357.2,379.4,358.1,381.3,358.1z"/>
		<path class="st1" d="M406.7,340.8c2.5,0,4.3,1.1,5.5,2.3l-1.6,2.1c-1.1-1-2.3-1.7-3.8-1.7c-3.4,0-5.9,3-5.9,7.3s2.4,7.3,5.9,7.3
			c1.8,0,3.3-0.9,4.4-1.9l1.4,2.1c-1.7,1.5-3.9,2.5-6.2,2.5c-5,0-8.9-3.6-8.9-9.9C397.5,344.4,401.8,340.8,406.7,340.8z"/>
		<path class="st1" d="M419.3,335.3c0-1.2,1-2.1,2.2-2.1s2.2,0.8,2.2,2.1c0,1.2-1,2.1-2.2,2.1S419.3,336.5,419.3,335.3z
			 M419.9,341.2h3.2v19h-3.2V341.2z"/>
		<path class="st1" d="M443.4,348.2c0-2.4-0.8-4.8-3.9-4.8c-2.2,0-4.2,1-5.7,2l-1.3-2.2c1.8-1.1,4.4-2.5,7.4-2.5
			c4.6,0,6.6,3.1,6.6,7.8v11.6H444l-0.3-2.3h-0.1c-1.8,1.5-3.9,2.7-6.3,2.7c-3.2,0-5.6-2-5.6-5.4
			C431.8,351.1,435.4,349.1,443.4,348.2z M438.2,358.1c1.8,0,3.4-0.9,5.2-2.5v-5.3c-6.4,0.8-8.5,2.3-8.5,4.8
			C434.9,357.2,436.4,358.1,438.2,358.1z"/>
		<path class="st1" d="M455.9,332.4h3.2v24.2c0,1,0.4,1.4,0.9,1.4c0.2,0,0.4,0,0.7-0.1l0.4,2.4c-0.4,0.2-1,0.3-1.8,0.3
			c-2.4,0-3.4-1.5-3.4-4.3L455.9,332.4L455.9,332.4z"/>
		<path class="st1" d="M468.5,355.9c1.6,1.3,3.3,2.3,5.6,2.3c2.5,0,3.7-1.3,3.7-3c0-2-2.3-2.8-4.3-3.6c-2.7-1-5.7-2.3-5.7-5.5
			c0-3,2.4-5.4,6.5-5.4c2.4,0,4.4,1,5.9,2.1l-1.5,2c-1.3-1-2.7-1.7-4.3-1.7c-2.4,0-3.5,1.3-3.5,2.7c0,1.8,2.1,2.5,4.2,3.3
			c2.7,1,5.8,2.1,5.8,5.7c0,3.1-2.5,5.7-6.9,5.7c-2.7,0-5.3-1.1-7.1-2.6L468.5,355.9z"/>
	</g>
</g>
<g>
	<g>
		<path class="st1" d="M537.7,348.2c0-2.4-0.8-4.8-3.9-4.8c-2.2,0-4.2,1-5.7,2l-1.3-2.2c1.8-1.1,4.4-2.5,7.4-2.5
			c4.6,0,6.6,3.1,6.6,7.8v11.6h-2.7l-0.3-2.3h-0.1c-1.8,1.5-3.9,2.7-6.3,2.7c-3.2,0-5.6-2-5.6-5.4
			C526,351.1,529.6,349.1,537.7,348.2z M532.5,358.1c1.8,0,3.4-0.9,5.2-2.5v-5.3c-6.4,0.8-8.5,2.3-8.5,4.8
			C529.2,357.2,530.6,358.1,532.5,358.1z"/>
		<path class="st1" d="M550.1,341.2h2.7l0.3,2.7h0.1c1.8-1.8,3.7-3.2,6.4-3.2c4,0,5.8,2.6,5.8,7.4v12h-3.2v-11.6
			c0-3.5-1.1-5.1-3.6-5.1c-2,0-3.3,1-5.2,2.9V360h-3.2L550.1,341.2L550.1,341.2z"/>
		<path class="st1" d="M581.5,340.8c2.2,0,3.6,0.8,5.3,2.2l-0.2-3.2v-7.3h3.2v27.8h-2.7L587,358h-0.1c-1.5,1.4-3.5,2.7-5.7,2.7
			c-4.8,0-7.8-3.6-7.8-9.9C573.3,344.6,577.2,340.8,581.5,340.8z M581.8,358c1.8,0,3.3-0.9,4.8-2.6v-9.9c-1.6-1.4-3-2-4.6-2
			c-3,0-5.5,2.9-5.5,7.3C576.6,355.2,578.5,358,581.8,358z"/>
		<path class="st1" d="M610.6,341.2h2.7l0.3,2.7h0.1c1.6-1.8,3.6-3.2,5.9-3.2c2.9,0,4.4,1.4,5.2,3.6c2-2.1,3.9-3.6,6.2-3.6
			c3.9,0,5.8,2.6,5.8,7.4v12h-3.2v-11.6c0-3.5-1.1-5.1-3.5-5.1c-1.5,0-3,1-4.8,2.9V360h-3.2v-11.6c0-3.5-1.1-5.1-3.5-5.1
			c-1.4,0-3,1-4.8,2.9v13.7h-3.2V341.2z"/>
		<path class="st1" d="M653.5,340.8c4.6,0,8.8,3.6,8.8,10c0,6.3-4.1,9.9-8.8,9.9c-4.6,0-8.8-3.6-8.8-9.9
			C644.7,344.4,648.8,340.8,653.5,340.8z M653.5,358c3.3,0,5.5-2.9,5.5-7.3s-2.2-7.3-5.5-7.3c-3.2,0-5.5,3-5.5,7.3
			C648,355.1,650.2,358,653.5,358z"/>
		<path class="st1" d="M670.4,341.2h2.7l0.3,3.4h0.1c1.3-2.4,3.2-3.9,5.4-3.9c0.8,0,1.4,0.1,2,0.4l-0.6,2.8
			c-0.6-0.2-1.1-0.3-1.8-0.3c-1.6,0-3.5,1.2-4.8,4.4v12.2h-3.2v-19H670.4z"/>
		<path class="st1" d="M693.9,340.8c4.8,0,7.6,3.5,7.6,8.9c0,0.7,0,1.3-0.1,1.8h-12.8c0.2,4.1,2.7,6.7,6.3,6.7
			c1.8,0,3.3-0.6,4.7-1.5l1.1,2.1c-1.6,1.1-3.7,2-6.2,2c-5.1,0-9.1-3.7-9.1-9.9S689.5,340.8,693.9,340.8z M698.6,349.3
			c0-3.9-1.7-6-4.7-6c-2.7,0-5.1,2.2-5.5,6H698.6z"/>
	</g>
</g>
<circle class="st1" cx="504.6" cy="346.1" r="3.1"/>
<circle class="st1" cx="337.6" cy="346.1" r="3.1"/>
<polygon class="st1" points="755.6,90.1 738.6,119.9 721.4,90.1 701.9,90.1 729,144 729,177 747.4,177 747.4,144 775.5,90.1 "/>
<polygon class="st1" points="534.4,158.4 534.4,90.1 516.2,90.1 516.2,177 527.1,177 534.4,177 581.7,177 581.7,158.4 "/>
<polygon class="st1" points="676.4,90.1 606.4,90.1 606.4,107.6 631.8,107.6 631.8,177 650.4,177 650.4,107.6 676.4,107.6 "/>
<path class="st1" d="M385.9,110.6l-18.1,3.6c0,0-4.7-6-16.7-6s-12.3,6-12.3,6s-1.3,6.5,5.4,8.6c6.6,2,43,7.2,43,31.3
	c0,23.6-35.7,23-35.7,23s-34.1,0.9-36.8-26l18.8,0.1c0,0,6.3,9.5,19.6,9.5c13.3,0,14.9-5.5,14.9-8.5c0-4.2-7-6.7-17.4-8.5
	c-13.4-2.3-30.7-10.6-30.7-29.6s17.9-23.8,34.1-23.8C366.7,90.1,381.6,97.1,385.9,110.6z"/>
<path class="st1" d="M473.5,90.1v9c-6.4-5.3-14.3-8.5-22.9-8.5c-21.1,0-38.2,19.1-38.2,42.7s17.1,42.7,38.2,42.7
	c8.6,0,16.5-3.2,22.9-8.5v9.5h18.8V90.1H473.5z M450.7,158.4c-12,0-21.6-11.1-21.6-24.9s9.7-24.9,21.6-24.9s21.6,11.1,21.6,24.9
	S462.6,158.4,450.7,158.4z"/>
<text transform="matrix(1 0 0 1 321.3914 360.1793)" class="st1 st3 st4 st5"> </text>
<text transform="matrix(1 0 0 1 324.9914 360.1793)" class="st1 st3 st4"> </text>
<text transform="matrix(1 0 0 1 334.0914 360.1793)" class="st1 st3 st4 st6">  </text>
<text transform="matrix(1 0 0 1 486.7914 360.1793)" class="st1 st3 st4"> </text>
<circle class="st1" cx="504.6" cy="346.1" r="3.1"/>
<circle class="st1" cx="337.6" cy="346.1" r="3.1"/>
<path class="st7" d="M760.5,51l-0.6-0.4c-4.4-3.6-9.6-6.4-15.3-8c-0.1,0-0.1,0-0.2-0.1c-0.9-0.2-1.7-0.5-2.6-0.6h-0.1
	c-0.9-0.2-1.8-0.4-2.8-0.5c-0.1,0-0.2,0-0.4,0c-0.8-0.1-1.5-0.2-2.3-0.2c-0.2,0-0.4,0-0.6,0c-0.9-0.1-1.8-0.1-2.7-0.1l0,0l0,0
	c-0.9,0-1.8,0-2.7,0.1c-0.2,0-0.4,0-0.7,0c-0.7,0.1-1.5,0.1-2.2,0.2c-0.2,0-0.3,0-0.5,0.1c-0.9,0.1-1.8,0.3-2.7,0.5H724
	c-0.8,0.2-1.7,0.4-2.5,0.6c-0.1,0-0.3,0.1-0.4,0.1c-1.8,0.5-3.5,1.1-5.1,1.8c0,0,0,0-0.1,0c-0.8,0.4-1.6,0.7-2.4,1.1
	c0,0-0.1,0-0.1,0.1c-3.1,1.6-5.9,3.5-8.4,5.7c-7,5.5-15.9,8.9-25.5,8.9l0,0c-9.7-0.1-18.6-3.6-25.6-9.2l-0.6-0.4
	c-4.4-3.6-9.6-6.4-15.3-8c-0.1,0-0.1,0-0.2-0.1c-0.9-0.2-1.7-0.5-2.6-0.6h-0.1c-0.9-0.2-1.8-0.4-2.8-0.5c-0.1,0-0.2,0-0.4,0
	c-0.8-0.1-1.5-0.2-2.3-0.2c-0.2,0-0.4,0-0.6,0c-0.9-0.1-1.8-0.1-2.7-0.1l0,0l0,0c-0.9,0-1.8,0-2.7,0.1c-0.2,0-0.4,0-0.7,0
	c-0.7,0.1-1.5,0.1-2.2,0.2c-0.2,0-0.3,0-0.5,0.1c-0.9,0.1-1.8,0.3-2.7,0.5h-0.1c-0.8,0.2-1.7,0.4-2.5,0.6c-0.1,0-0.3,0.1-0.4,0.1
	c-1.8,0.5-3.5,1.1-5.1,1.8c0,0,0,0-0.1,0c-0.8,0.4-1.6,0.7-2.4,1.1c0,0-0.1,0-0.1,0.1c-3.1,1.6-5.9,3.5-8.4,5.7
	c-7,5.5-15.9,8.9-25.5,8.9l0,0c-9.7-0.1-18.6-3.6-25.6-9.2l-0.6-0.4c-4.4-3.6-9.6-6.4-15.3-8c-0.1,0-0.1,0-0.2-0.1
	c-0.9-0.2-1.7-0.5-2.6-0.6h-0.1c-0.9-0.2-1.8-0.4-2.8-0.5c-0.1,0-0.2,0-0.4,0c-0.8-0.1-1.5-0.2-2.3-0.2c-0.2,0-0.4,0-0.6,0
	c-0.9-0.1-1.8-0.1-2.7-0.1l0,0l0,0c-0.9,0-1.8,0-2.7,0.1c-0.2,0-0.4,0-0.7,0c-0.7,0.1-1.5,0.1-2.2,0.2c-0.2,0-0.3,0-0.5,0.1
	c-0.9,0.1-1.8,0.3-2.7,0.5h-0.1c-0.8,0.2-1.7,0.4-2.5,0.6c-0.1,0-0.3,0.1-0.4,0.1c-1.8,0.5-3.5,1.1-5.1,1.8c0,0,0,0-0.1,0
	c-0.8,0.4-1.6,0.7-2.4,1.1c0,0-0.1,0-0.1,0.1c-3.1,1.6-5.9,3.5-8.4,5.7c-7,5.5-15.9,8.9-25.5,8.9l0,0c-9.7-0.1-18.6-3.6-25.6-9.2
	l-0.6-0.4c-4.4-3.6-9.6-6.4-15.3-8c-0.1,0-0.1,0-0.2-0.1c-0.9-0.2-1.7-0.5-2.6-0.6h-0.1c-0.9-0.2-1.8-0.4-2.8-0.5
	c-0.1,0-0.2,0-0.4,0c-0.8-0.1-1.5-0.2-2.3-0.2c-0.2,0-0.4,0-0.6,0c-0.9-0.1-1.8-0.1-2.7-0.1l0,0l0,0c-0.9,0-1.8,0-2.7,0.1
	c-0.2,0-0.4,0-0.7,0c-0.7,0.1-1.5,0.1-2.2,0.2c-0.2,0-0.3,0-0.5,0.1c-0.9,0.1-1.8,0.3-2.7,0.5h-0.1c-0.8,0.2-1.7,0.4-2.5,0.6
	c-0.1,0-0.3,0.1-0.4,0.1c-1.8,0.5-3.5,1.1-5.1,1.8c0,0,0,0-0.1,0c-0.8,0.4-1.6,0.7-2.4,1.1c0,0-0.1,0-0.1,0.1
	c-3.1,1.6-5.9,3.5-8.4,5.7c-7,5.5-15.9,8.9-25.5,8.9l0,0c-9.7-0.1-18.6-3.6-25.6-9.2l-0.6-0.4c-4.4-3.6-9.6-6.4-15.3-8
	c-0.1,0-0.1,0-0.2-0.1c-0.9-0.2-1.7-0.5-2.6-0.6h-0.1c-0.9-0.2-1.8-0.4-2.8-0.5c-0.1,0-0.2,0-0.4,0c-0.8-0.1-1.5-0.2-2.3-0.2
	c-0.2,0-0.4,0-0.6,0c-0.9-0.1-1.8-0.1-2.7-0.1l0,0l0,0c-0.9,0-1.8,0-2.7,0.1c-0.2,0-0.4,0-0.7,0c-0.7,0.1-1.5,0.1-2.2,0.2
	c-0.2,0-0.3,0-0.5,0.1c-0.9,0.1-1.8,0.3-2.7,0.5h-0.1c-0.8,0.2-1.7,0.4-2.5,0.6c-0.1,0-0.3,0.1-0.4,0.1c-1.8,0.5-3.5,1.1-5.1,1.8
	c0,0,0,0-0.1,0c-0.8,0.4-1.6,0.7-2.4,1.1c0,0-0.1,0-0.1,0.1c-3.1,1.6-5.9,3.5-8.4,5.7c-7,5.5-15.9,8.9-25.5,8.9l0,0
	c-9.7-0.1-18.6-3.6-25.6-9.2l-0.6-0.4c-4.4-3.6-9.6-6.4-15.3-8c-0.1,0-0.1,0-0.2-0.1c-0.9-0.2-1.7-0.5-2.6-0.6h-0.1
	c-0.9-0.2-1.8-0.4-2.8-0.5c-0.1,0-0.2,0-0.4,0c-0.8-0.1-1.5-0.2-2.3-0.2c-0.2,0-0.4,0-0.6,0c-0.9-0.1-1.8-0.1-2.7-0.1l0,0l0,0
	c-0.9,0-1.8,0-2.7,0.1c-0.2,0-0.4,0-0.7,0c-0.7,0.1-1.5,0.1-2.2,0.2c-0.2,0-0.3,0-0.5,0.1c-0.9,0.1-1.8,0.3-2.7,0.5H191
	c-0.8,0.2-1.7,0.4-2.5,0.6c-0.1,0-0.3,0.1-0.4,0.1c-1.8,0.5-3.5,1.1-5.1,1.8c0,0,0,0-0.1,0c-0.8,0.4-1.6,0.7-2.4,1.1
	c0,0-0.1,0-0.1,0.1c-3.1,1.6-5.9,3.5-8.4,5.7c-7,5.5-15.9,8.9-25.5,8.9l0,0c-9.7-0.1-18.6-3.6-25.6-9.2l-0.6-0.4
	c-4.4-3.6-9.6-6.4-15.3-8c-0.1,0-0.1,0-0.2-0.1c-0.9-0.2-1.7-0.5-2.6-0.6h-0.1c-0.9-0.2-1.8-0.4-2.8-0.5c-0.1,0-0.2,0-0.4,0
	c-0.8-0.1-1.5-0.2-2.3-0.2c-0.2,0-0.4,0-0.6,0c-0.9-0.1-1.8-0.1-2.7-0.1l0,0l0,0c-0.9,0-1.8,0-2.7,0.1c-0.2,0-0.4,0-0.7,0
	c-0.7,0.1-1.5,0.1-2.2,0.2c-0.2,0-0.3,0-0.5,0.1c-0.9,0.1-1.8,0.3-2.7,0.5h-0.1c-0.8,0.2-1.7,0.4-2.5,0.6c-0.1,0-0.3,0.1-0.4,0.1
	c-1.8,0.5-3.5,1.1-5.1,1.8c0,0,0,0-0.1,0c-0.8,0.4-1.6,0.7-2.4,1.1c0,0-0.1,0-0.1,0.1c-3.1,1.6-5.9,3.5-8.4,5.7
	c-7,5.5-15.9,8.9-25.5,8.9v1c7.9-0.1,15.2-2.2,21.5-6c1.9-1.1,5.9-4.2,5.9-4.2c2.2-1.8,4.6-3.3,7.2-4.6l0,0c2.5-1.3,5.1-2.3,7.9-3
	c0.1,0,0.2-0.1,0.3-0.1c0.4-0.1,0.8-0.2,1.2-0.3c0.2,0,0.4-0.1,0.6-0.1c0.4-0.1,0.7-0.2,1.1-0.2c0.3,0,0.5-0.1,0.8-0.1
	c0.3-0.1,0.7-0.1,1-0.2c0.3,0,0.6-0.1,0.9-0.1s0.6-0.1,1-0.1s0.7-0.1,1.1-0.1c0.3,0,0.5,0,0.8-0.1c0.6,0,1.2,0,1.8,0h0.1h0.1
	c0.6,0,1.2,0,1.8,0c0.2,0,0.5,0,0.7,0c0.4,0,0.8,0.1,1.2,0.1c0.3,0,0.6,0.1,0.8,0.1c0.4,0,0.7,0.1,1,0.1s0.6,0.1,0.9,0.1
	c0.3,0.1,0.7,0.1,1,0.2c0.5,0.1,1.1,0.2,1.6,0.3c0.3,0.1,0.5,0.1,0.8,0.2c0.4,0.1,0.7,0.2,1,0.3c0.2,0.1,0.5,0.1,0.7,0.2
	c0.4,0.1,0.7,0.2,1.1,0.3c0.2,0.1,0.4,0.1,0.6,0.2c0.4,0.1,0.8,0.3,1.2,0.4c0.1,0,0.1,0.1,0.2,0.1c1.4,0.5,2.8,1.1,4.1,1.8
	c0.1,0,0.1,0.1,0.2,0.1c0.4,0.2,0.8,0.4,1.3,0.7c0.1,0,0.1,0.1,0.2,0.1c1.4,0.8,2.7,1.6,3.9,2.5c0,0,0.8,0.6,1.9,1.5l5.5,3.8
	c6.3,3.8,13.7,6,21.5,6.1l0,0c7.9-0.1,15.2-2.2,21.5-6c1.9-1.1,5.9-4.2,5.9-4.2c2.2-1.8,4.6-3.3,7.2-4.6l0,0c2.5-1.3,5.1-2.3,7.9-3
	c0.1,0,0.2-0.1,0.3-0.1c0.4-0.1,0.8-0.2,1.2-0.3c0.2,0,0.4-0.1,0.6-0.1c0.4-0.1,0.7-0.2,1.1-0.2c0.3,0,0.5-0.1,0.8-0.1
	c0.3-0.1,0.7-0.1,1-0.2c0.3,0,0.6-0.1,0.9-0.1c0.3,0,0.6-0.1,1-0.1s0.7-0.1,1.1-0.1c0.3,0,0.5,0,0.8-0.1c0.6,0,1.2,0,1.8,0h0.1h0.1
	c0.6,0,1.2,0,1.8,0c0.2,0,0.5,0,0.7,0c0.4,0,0.8,0.1,1.2,0.1c0.3,0,0.6,0.1,0.8,0.1c0.4,0,0.7,0.1,1,0.1s0.6,0.1,0.9,0.1
	c0.3,0.1,0.7,0.1,1,0.2c0.5,0.1,1.1,0.2,1.6,0.3c0.3,0.1,0.5,0.1,0.8,0.2c0.4,0.1,0.7,0.2,1,0.3c0.2,0.1,0.5,0.1,0.7,0.2
	c0.4,0.1,0.7,0.2,1.1,0.3c0.2,0.1,0.4,0.1,0.6,0.2c0.4,0.1,0.8,0.3,1.2,0.4c0.1,0,0.1,0.1,0.2,0.1c1.4,0.5,2.8,1.1,4.1,1.8
	c0.1,0,0.1,0.1,0.2,0.1c0.4,0.2,0.8,0.4,1.3,0.7c0.1,0,0.1,0.1,0.2,0.1c1.4,0.8,2.7,1.6,3.9,2.5c0,0,0.8,0.6,1.9,1.5l5.5,3.8
	c6.3,3.8,13.7,6,21.5,6.1l0,0c7.9-0.1,15.2-2.2,21.5-6c1.9-1.1,5.9-4.2,5.9-4.2c2.2-1.8,4.6-3.3,7.2-4.6l0,0c2.5-1.3,5.1-2.3,7.9-3
	c0.1,0,0.2-0.1,0.3-0.1c0.4-0.1,0.8-0.2,1.2-0.3c0.2,0,0.4-0.1,0.6-0.1c0.4-0.1,0.7-0.2,1.1-0.2c0.3,0,0.5-0.1,0.8-0.1
	c0.3-0.1,0.7-0.1,1-0.2c0.3,0,0.6-0.1,0.9-0.1s0.6-0.1,1-0.1s0.7-0.1,1.1-0.1c0.3,0,0.5,0,0.8-0.1c0.6,0,1.2,0,1.8,0h0.1h0.1
	c0.6,0,1.2,0,1.8,0c0.2,0,0.5,0,0.7,0c0.4,0,0.8,0.1,1.2,0.1c0.3,0,0.6,0.1,0.8,0.1c0.4,0,0.7,0.1,1,0.1s0.6,0.1,0.9,0.1
	c0.3,0.1,0.7,0.1,1,0.2c0.5,0.1,1.1,0.2,1.6,0.3c0.3,0.1,0.5,0.1,0.8,0.2c0.4,0.1,0.7,0.2,1,0.3c0.2,0.1,0.5,0.1,0.7,0.2
	c0.4,0.1,0.7,0.2,1.1,0.3c0.2,0.1,0.4,0.1,0.6,0.2c0.4,0.1,0.8,0.3,1.2,0.4c0.1,0,0.1,0.1,0.2,0.1c1.4,0.5,2.8,1.1,4.1,1.8
	c0.1,0,0.1,0.1,0.2,0.1c0.4,0.2,0.8,0.4,1.3,0.7c0.1,0,0.1,0.1,0.2,0.1c1.4,0.8,2.7,1.6,3.9,2.5c0,0,0.8,0.6,1.9,1.5l5.5,3.8
	c6.3,3.8,13.7,6,21.5,6.1l0,0c7.9-0.1,15.2-2.2,21.5-6c1.9-1.1,5.9-4.2,5.9-4.2c2.2-1.8,4.6-3.3,7.2-4.6l0,0c2.5-1.3,5.1-2.3,7.9-3
	c0.1,0,0.2-0.1,0.3-0.1c0.4-0.1,0.8-0.2,1.2-0.3c0.2,0,0.4-0.1,0.6-0.1c0.4-0.1,0.7-0.2,1.1-0.2c0.3,0,0.5-0.1,0.8-0.1
	c0.3-0.1,0.7-0.1,1-0.2c0.3,0,0.6-0.1,0.9-0.1s0.6-0.1,1-0.1s0.7-0.1,1.1-0.1c0.3,0,0.5,0,0.8-0.1c0.6,0,1.2,0,1.8,0h0.1h0.1
	c0.6,0,1.2,0,1.8,0c0.2,0,0.5,0,0.7,0c0.4,0,0.8,0.1,1.2,0.1c0.3,0,0.6,0.1,0.8,0.1c0.4,0,0.7,0.1,1,0.1s0.6,0.1,0.9,0.1
	c0.3,0.1,0.7,0.1,1,0.2c0.5,0.1,1.1,0.2,1.6,0.3c0.3,0.1,0.5,0.1,0.8,0.2c0.4,0.1,0.7,0.2,1,0.3c0.2,0.1,0.5,0.1,0.7,0.2
	c0.4,0.1,0.7,0.2,1.1,0.3c0.2,0.1,0.4,0.1,0.6,0.2c0.4,0.1,0.8,0.3,1.2,0.4c0.1,0,0.1,0.1,0.2,0.1c1.4,0.5,2.8,1.1,4.1,1.8
	c0.1,0,0.1,0.1,0.2,0.1c0.4,0.2,0.8,0.4,1.3,0.7c0.1,0,0.1,0.1,0.2,0.1c1.4,0.8,2.7,1.6,3.9,2.5c0,0,0.8,0.6,1.9,1.5l5.5,3.8
	c6.3,3.8,13.7,6,21.5,6.1l0,0c7.9-0.1,15.2-2.2,21.5-6c1.9-1.1,5.9-4.2,5.9-4.2c2.2-1.8,4.6-3.3,7.2-4.6l0,0c2.5-1.3,5.1-2.3,7.9-3
	c0.1,0,0.2-0.1,0.3-0.1c0.4-0.1,0.8-0.2,1.2-0.3c0.2,0,0.4-0.1,0.6-0.1c0.4-0.1,0.7-0.2,1.1-0.2c0.3,0,0.5-0.1,0.8-0.1
	c0.3-0.1,0.7-0.1,1-0.2c0.3,0,0.6-0.1,0.9-0.1c0.3,0,0.6-0.1,1-0.1s0.7-0.1,1.1-0.1c0.3,0,0.5,0,0.8-0.1c0.6,0,1.2,0,1.8,0h0.1h0.1
	c0.6,0,1.2,0,1.8,0c0.2,0,0.5,0,0.7,0c0.4,0,0.8,0.1,1.2,0.1c0.3,0,0.6,0.1,0.8,0.1c0.4,0,0.7,0.1,1,0.1s0.6,0.1,0.9,0.1
	c0.3,0.1,0.7,0.1,1,0.2c0.5,0.1,1.1,0.2,1.6,0.3c0.3,0.1,0.5,0.1,0.8,0.2c0.4,0.1,0.7,0.2,1,0.3c0.2,0.1,0.5,0.1,0.7,0.2
	c0.4,0.1,0.7,0.2,1.1,0.3c0.2,0.1,0.4,0.1,0.6,0.2c0.4,0.1,0.8,0.3,1.2,0.4c0.1,0,0.1,0.1,0.2,0.1c1.4,0.5,2.8,1.1,4.1,1.8
	c0.1,0,0.1,0.1,0.2,0.1c0.4,0.2,0.8,0.4,1.3,0.7c0.1,0,0.1,0.1,0.2,0.1c1.4,0.8,2.7,1.6,3.9,2.5c0,0,0.8,0.6,1.9,1.5l5.5,3.8
	c6.3,3.8,13.7,6,21.5,6.1l0,0c7.9-0.1,15.2-2.2,21.5-6c1.9-1.1,5.9-4.2,5.9-4.2c2.2-1.8,4.6-3.3,7.2-4.6l0,0c2.5-1.3,5.1-2.3,7.9-3
	c0.1,0,0.2-0.1,0.3-0.1c0.4-0.1,0.8-0.2,1.2-0.3c0.2,0,0.4-0.1,0.6-0.1c0.4-0.1,0.7-0.2,1.1-0.2c0.3,0,0.5-0.1,0.8-0.1
	c0.3-0.1,0.7-0.1,1-0.2c0.3,0,0.6-0.1,0.9-0.1c0.3,0,0.6-0.1,1-0.1s0.7-0.1,1.1-0.1c0.3,0,0.5,0,0.8-0.1c0.6,0,1.2,0,1.8,0h0.1h0.1
	c0.6,0,1.2,0,1.8,0c0.2,0,0.5,0,0.7,0c0.4,0,0.8,0.1,1.2,0.1c0.3,0,0.6,0.1,0.8,0.1c0.4,0,0.7,0.1,1,0.1s0.6,0.1,0.9,0.1
	c0.3,0.1,0.7,0.1,1,0.2c0.5,0.1,1.1,0.2,1.6,0.3c0.3,0.1,0.5,0.1,0.8,0.2c0.4,0.1,0.7,0.2,1,0.3c0.2,0.1,0.5,0.1,0.7,0.2
	c0.4,0.1,0.7,0.2,1.1,0.3c0.2,0.1,0.4,0.1,0.6,0.2c0.4,0.1,0.8,0.3,1.2,0.4c0.1,0,0.1,0.1,0.2,0.1c1.4,0.5,2.8,1.1,4.1,1.8
	c0.1,0,0.1,0.1,0.2,0.1c0.4,0.2,0.8,0.4,1.3,0.7c0.1,0,0.1,0.1,0.2,0.1c1.4,0.8,2.7,1.6,3.9,2.5c0,0,0.8,0.6,1.9,1.5l5.5,3.8
	c6.3,3.8,13.7,6,21.5,6.1l0,0c7.9-0.1,15.2-2.2,21.5-6c1.9-1.1,5.9-4.2,5.9-4.2c2.2-1.8,4.6-3.3,7.2-4.6l0,0c2.5-1.3,5.1-2.3,7.9-3
	c0.1,0,0.2-0.1,0.3-0.1c0.4-0.1,0.8-0.2,1.2-0.3c0.2,0,0.4-0.1,0.6-0.1c0.4-0.1,0.7-0.2,1.1-0.2c0.3,0,0.5-0.1,0.8-0.1
	c0.3-0.1,0.7-0.1,1-0.2c0.3,0,0.6-0.1,0.9-0.1c0.3,0,0.6-0.1,1-0.1s0.7-0.1,1.1-0.1c0.3,0,0.5,0,0.8-0.1c0.6,0,1.2,0,1.8,0h0.1h0.1
	c0.6,0,1.2,0,1.8,0c0.2,0,0.5,0,0.7,0c0.4,0,0.8,0.1,1.2,0.1c0.3,0,0.6,0.1,0.8,0.1c0.4,0,0.7,0.1,1,0.1s0.6,0.1,0.9,0.1
	c0.3,0.1,0.7,0.1,1,0.2c0.5,0.1,1.1,0.2,1.6,0.3c0.3,0.1,0.5,0.1,0.8,0.2c0.4,0.1,0.7,0.2,1,0.3c0.2,0.1,0.5,0.1,0.7,0.2
	c0.4,0.1,0.7,0.2,1.1,0.3c0.2,0.1,0.4,0.1,0.6,0.2c0.4,0.1,0.8,0.3,1.2,0.4c0.1,0,0.1,0.1,0.2,0.1c1.4,0.5,2.8,1.1,4.1,1.8
	c0.1,0,0.1,0.1,0.2,0.1c0.4,0.2,0.8,0.4,1.3,0.7c0.1,0,0.1,0.1,0.2,0.1c1.4,0.8,2.7,1.6,3.9,2.5c0,0,0.8,0.6,1.9,1.5l5.5,3.8
	c6.3,3.8,13.7,6,21.5,6.1v-1C776.4,60.1,767.5,56.7,760.5,51z"/>
<path class="st7" d="M760.5,219.9l-0.6,0.4c-4.4,3.6-9.6,6.4-15.3,8c-0.1,0-0.1,0-0.2,0.1c-0.9,0.2-1.7,0.5-2.6,0.6h-0.1
	c-0.9,0.2-1.8,0.4-2.8,0.5c-0.1,0-0.2,0-0.4,0c-0.8,0.1-1.5,0.2-2.3,0.2c-0.2,0-0.4,0-0.6,0c-0.9,0.1-1.8,0.1-2.7,0.1l0,0l0,0
	c-0.9,0-1.8,0-2.7-0.1c-0.2,0-0.4,0-0.7,0c-0.7-0.1-1.5-0.1-2.2-0.2c-0.2,0-0.3,0-0.5-0.1c-0.9-0.1-1.8-0.3-2.7-0.5H724
	c-0.8-0.2-1.7-0.4-2.5-0.6c-0.1,0-0.3-0.1-0.4-0.1c-1.8-0.5-3.5-1.1-5.1-1.8c0,0,0,0-0.1,0c-0.8-0.4-1.6-0.7-2.4-1.1
	c0,0-0.1,0-0.1-0.1c-3.1-1.6-5.9-3.5-8.4-5.7c-7-5.5-15.9-8.9-25.5-8.9l0,0c-9.7,0.1-18.6,3.6-25.6,9.2l-0.6,0.4
	c-4.4,3.6-9.6,6.4-15.3,8c-0.1,0-0.1,0-0.2,0.1c-0.9,0.2-1.7,0.5-2.6,0.6h-0.1c-0.9,0.2-1.8,0.4-2.8,0.5c-0.1,0-0.2,0-0.4,0
	c-0.8,0.1-1.5,0.2-2.3,0.2c-0.2,0-0.4,0-0.6,0c-0.9,0.1-1.8,0.1-2.7,0.1l0,0l0,0c-0.9,0-1.8,0-2.7-0.1c-0.2,0-0.4,0-0.7,0
	c-0.7-0.1-1.5-0.1-2.2-0.2c-0.2,0-0.3,0-0.5-0.1c-0.9-0.1-1.8-0.3-2.7-0.5h-0.1c-0.8-0.2-1.7-0.4-2.5-0.6c-0.1,0-0.3-0.1-0.4-0.1
	c-1.8-0.5-3.5-1.1-5.1-1.8c0,0,0,0-0.1,0c-0.8-0.4-1.6-0.7-2.4-1.1c0,0-0.1,0-0.1-0.1c-3.1-1.6-5.9-3.5-8.4-5.7
	c-7-5.5-15.9-8.9-25.5-8.9l0,0c-9.7,0.1-18.6,3.6-25.6,9.2l-0.6,0.4c-4.4,3.6-9.6,6.4-15.3,8c-0.1,0-0.1,0-0.2,0.1
	c-0.9,0.2-1.7,0.5-2.6,0.6h-0.1c-0.9,0.2-1.8,0.4-2.8,0.5c-0.1,0-0.2,0-0.4,0c-0.8,0.1-1.5,0.2-2.3,0.2c-0.2,0-0.4,0-0.6,0
	c-0.9,0.1-1.8,0.1-2.7,0.1l0,0l0,0c-0.9,0-1.8,0-2.7-0.1c-0.2,0-0.4,0-0.7,0c-0.7-0.1-1.5-0.1-2.2-0.2c-0.2,0-0.3,0-0.5-0.1
	c-0.9-0.1-1.8-0.3-2.7-0.5h-0.1c-0.8-0.2-1.7-0.4-2.5-0.6c-0.1,0-0.3-0.1-0.4-0.1c-1.8-0.5-3.5-1.1-5.1-1.8c0,0,0,0-0.1,0
	c-0.8-0.4-1.6-0.7-2.4-1.1c0,0-0.1,0-0.1-0.1c-3.1-1.6-5.9-3.5-8.4-5.7c-7-5.5-15.9-8.9-25.5-8.9l0,0c-9.7,0.1-18.6,3.6-25.6,9.2
	l-0.6,0.4c-4.4,3.6-9.6,6.4-15.3,8c-0.1,0-0.1,0-0.2,0.1c-0.9,0.2-1.7,0.5-2.6,0.6h-0.1c-0.9,0.2-1.8,0.4-2.8,0.5
	c-0.1,0-0.2,0-0.4,0c-0.8,0.1-1.5,0.2-2.3,0.2c-0.2,0-0.4,0-0.6,0c-0.9,0.1-1.8,0.1-2.7,0.1l0,0l0,0c-0.9,0-1.8,0-2.7-0.1
	c-0.2,0-0.4,0-0.7,0c-0.7-0.1-1.5-0.1-2.2-0.2c-0.2,0-0.3,0-0.5-0.1c-0.9-0.1-1.8-0.3-2.7-0.5h-0.1c-0.8-0.2-1.7-0.4-2.5-0.6
	c-0.1,0-0.3-0.1-0.4-0.1c-1.8-0.5-3.5-1.1-5.1-1.8c0,0,0,0-0.1,0c-0.8-0.4-1.6-0.7-2.4-1.1c0,0-0.1,0-0.1-0.1
	c-3.1-1.6-5.9-3.5-8.4-5.7c-7-5.5-15.9-8.9-25.5-8.9l0,0c-9.7,0.1-18.6,3.6-25.6,9.2l-0.6,0.4c-4.4,3.6-9.6,6.4-15.3,8
	c-0.1,0-0.1,0-0.2,0.1c-0.9,0.2-1.7,0.5-2.6,0.6h-0.1c-0.9,0.2-1.8,0.4-2.8,0.5c-0.1,0-0.2,0-0.4,0c-0.8,0.1-1.5,0.2-2.3,0.2
	c-0.2,0-0.4,0-0.6,0c-0.9,0.1-1.8,0.1-2.7,0.1l0,0l0,0c-0.9,0-1.8,0-2.7-0.1c-0.2,0-0.4,0-0.7,0c-0.7-0.1-1.5-0.1-2.2-0.2
	c-0.2,0-0.3,0-0.5-0.1c-0.9-0.1-1.8-0.3-2.7-0.5h-0.1c-0.8-0.2-1.7-0.4-2.5-0.6c-0.1,0-0.3-0.1-0.4-0.1c-1.8-0.5-3.5-1.1-5.1-1.8
	c0,0,0,0-0.1,0c-0.8-0.4-1.6-0.7-2.4-1.1c0,0-0.1,0-0.1-0.1c-3.1-1.6-5.9-3.5-8.4-5.7c-7-5.5-15.9-8.9-25.5-8.9l0,0
	c-9.7,0.1-18.6,3.6-25.6,9.2l-0.6,0.4c-4.4,3.6-9.6,6.4-15.3,8c-0.1,0-0.1,0-0.2,0.1c-0.9,0.2-1.7,0.5-2.6,0.6h-0.1
	c-0.9,0.2-1.8,0.4-2.8,0.5c-0.1,0-0.2,0-0.4,0c-0.8,0.1-1.5,0.2-2.3,0.2c-0.2,0-0.4,0-0.6,0c-0.9,0.1-1.8,0.1-2.7,0.1l0,0l0,0
	c-0.9,0-1.8,0-2.7-0.1c-0.2,0-0.4,0-0.7,0c-0.7-0.1-1.5-0.1-2.2-0.2c-0.2,0-0.3,0-0.5-0.1c-0.9-0.1-1.8-0.3-2.7-0.5H191
	c-0.8-0.2-1.7-0.4-2.5-0.6c-0.1,0-0.3-0.1-0.4-0.1c-1.8-0.5-3.5-1.1-5.1-1.8c0,0,0,0-0.1,0c-0.8-0.4-1.6-0.7-2.4-1.1
	c0,0-0.1,0-0.1-0.1c-3.1-1.6-5.9-3.5-8.4-5.7c-7-5.5-15.9-8.9-25.5-8.9l0,0c-9.7,0.1-18.6,3.6-25.6,9.2l-0.6,0.4
	c-4.4,3.6-9.6,6.4-15.3,8c-0.1,0-0.1,0-0.2,0.1c-0.9,0.2-1.7,0.5-2.6,0.6h-0.1c-0.9,0.2-1.8,0.4-2.8,0.5c-0.1,0-0.2,0-0.4,0
	c-0.8,0.1-1.5,0.2-2.3,0.2c-0.2,0-0.4,0-0.6,0c-0.9,0.1-1.8,0.1-2.7,0.1l0,0l0,0c-0.9,0-1.8,0-2.7-0.1c-0.2,0-0.4,0-0.7,0
	c-0.7-0.1-1.5-0.1-2.2-0.2c-0.2,0-0.3,0-0.5-0.1c-0.9-0.1-1.8-0.3-2.7-0.5h-0.1c-0.8-0.2-1.7-0.4-2.5-0.6c-0.1,0-0.3-0.1-0.4-0.1
	c-1.8-0.5-3.5-1.1-5.1-1.8c0,0,0,0-0.1,0c-0.8-0.4-1.6-0.7-2.4-1.1c0,0-0.1,0-0.1-0.1c-3.1-1.6-5.9-3.5-8.4-5.7
	c-7-5.5-15.9-8.9-25.5-8.9v-1c7.9,0.1,15.2,2.2,21.5,6c1.9,1.1,5.9,4.2,5.9,4.2c2.2,1.8,4.6,3.3,7.2,4.6l0,0c2.5,1.3,5.1,2.3,7.9,3
	c0.1,0,0.2,0.1,0.3,0.1c0.4,0.1,0.8,0.2,1.2,0.3c0.2,0,0.4,0.1,0.6,0.1c0.4,0.1,0.7,0.2,1.1,0.2c0.3,0,0.5,0.1,0.8,0.1
	c0.3,0.1,0.7,0.1,1,0.2c0.3,0,0.6,0.1,0.9,0.1s0.6,0.1,1,0.1s0.7,0.1,1.1,0.1c0.3,0,0.5,0,0.8,0.1c0.6,0,1.2,0,1.8,0h0.1h0.1
	c0.6,0,1.2,0,1.8,0c0.2,0,0.5,0,0.7,0c0.4,0,0.8-0.1,1.2-0.1c0.3,0,0.6-0.1,0.8-0.1c0.4,0,0.7-0.1,1-0.1s0.6-0.1,0.9-0.1
	c0.3-0.1,0.7-0.1,1-0.2c0.5-0.1,1.1-0.2,1.6-0.3c0.3-0.1,0.5-0.1,0.8-0.2c0.4-0.1,0.7-0.2,1-0.3c0.2-0.1,0.5-0.1,0.7-0.2
	c0.4-0.1,0.7-0.2,1.1-0.3c0.2-0.1,0.4-0.1,0.6-0.2c0.4-0.1,0.8-0.3,1.2-0.4c0.1,0,0.1-0.1,0.2-0.1c1.4-0.5,2.8-1.1,4.1-1.8
	c0.1,0,0.1-0.1,0.2-0.1c0.4-0.2,0.8-0.4,1.3-0.7c0.1,0,0.1-0.1,0.2-0.1c1.4-0.8,2.7-1.6,3.9-2.5c0,0,0.8-0.6,1.9-1.5l5.5-3.8
	c6.3-3.8,13.7-6,21.5-6.1l0,0c7.9,0.1,15.2,2.2,21.5,6c1.9,1.1,5.9,4.2,5.9,4.2c2.2,1.8,4.6,3.3,7.2,4.6l0,0c2.5,1.3,5.1,2.3,7.9,3
	c0.1,0,0.2,0.1,0.3,0.1c0.4,0.1,0.8,0.2,1.2,0.3c0.2,0,0.4,0.1,0.6,0.1c0.4,0.1,0.7,0.2,1.1,0.2c0.3,0,0.5,0.1,0.8,0.1
	c0.3,0.1,0.7,0.1,1,0.2c0.3,0,0.6,0.1,0.9,0.1c0.3,0,0.6,0.1,1,0.1s0.7,0.1,1.1,0.1c0.3,0,0.5,0,0.8,0.1c0.6,0,1.2,0,1.8,0h0.1h0.1
	c0.6,0,1.2,0,1.8,0c0.2,0,0.5,0,0.7,0c0.4,0,0.8-0.1,1.2-0.1c0.3,0,0.6-0.1,0.8-0.1c0.4,0,0.7-0.1,1-0.1s0.6-0.1,0.9-0.1
	c0.3-0.1,0.7-0.1,1-0.2c0.5-0.1,1.1-0.2,1.6-0.3c0.3-0.1,0.5-0.1,0.8-0.2c0.4-0.1,0.7-0.2,1-0.3c0.2-0.1,0.5-0.1,0.7-0.2
	c0.4-0.1,0.7-0.2,1.1-0.3c0.2-0.1,0.4-0.1,0.6-0.2c0.4-0.1,0.8-0.3,1.2-0.4c0.1,0,0.1-0.1,0.2-0.1c1.4-0.5,2.8-1.1,4.1-1.8
	c0.1,0,0.1-0.1,0.2-0.1c0.4-0.2,0.8-0.4,1.3-0.7c0.1,0,0.1-0.1,0.2-0.1c1.4-0.8,2.7-1.6,3.9-2.5c0,0,0.8-0.6,1.9-1.5l5.5-3.8
	c6.3-3.8,13.7-6,21.5-6.1l0,0c7.9,0.1,15.2,2.2,21.5,6c1.9,1.1,5.9,4.2,5.9,4.2c2.2,1.8,4.6,3.3,7.2,4.6l0,0c2.5,1.3,5.1,2.3,7.9,3
	c0.1,0,0.2,0.1,0.3,0.1c0.4,0.1,0.8,0.2,1.2,0.3c0.2,0,0.4,0.1,0.6,0.1c0.4,0.1,0.7,0.2,1.1,0.2c0.3,0,0.5,0.1,0.8,0.1
	c0.3,0.1,0.7,0.1,1,0.2c0.3,0,0.6,0.1,0.9,0.1s0.6,0.1,1,0.1s0.7,0.1,1.1,0.1c0.3,0,0.5,0,0.8,0.1c0.6,0,1.2,0,1.8,0h0.1h0.1
	c0.6,0,1.2,0,1.8,0c0.2,0,0.5,0,0.7,0c0.4,0,0.8-0.1,1.2-0.1c0.3,0,0.6-0.1,0.8-0.1c0.4,0,0.7-0.1,1-0.1s0.6-0.1,0.9-0.1
	c0.3-0.1,0.7-0.1,1-0.2c0.5-0.1,1.1-0.2,1.6-0.3c0.3-0.1,0.5-0.1,0.8-0.2c0.4-0.1,0.7-0.2,1-0.3c0.2-0.1,0.5-0.1,0.7-0.2
	c0.4-0.1,0.7-0.2,1.1-0.3c0.2-0.1,0.4-0.1,0.6-0.2c0.4-0.1,0.8-0.3,1.2-0.4c0.1,0,0.1-0.1,0.2-0.1c1.4-0.5,2.8-1.1,4.1-1.8
	c0.1,0,0.1-0.1,0.2-0.1c0.4-0.2,0.8-0.4,1.3-0.7c0.1,0,0.1-0.1,0.2-0.1c1.4-0.8,2.7-1.6,3.9-2.5c0,0,0.8-0.6,1.9-1.5l5.5-3.8
	c6.3-3.8,13.7-6,21.5-6.1l0,0c7.9,0.1,15.2,2.2,21.5,6c1.9,1.1,5.9,4.2,5.9,4.2c2.2,1.8,4.6,3.3,7.2,4.6l0,0c2.5,1.3,5.1,2.3,7.9,3
	c0.1,0,0.2,0.1,0.3,0.1c0.4,0.1,0.8,0.2,1.2,0.3c0.2,0,0.4,0.1,0.6,0.1c0.4,0.1,0.7,0.2,1.1,0.2c0.3,0,0.5,0.1,0.8,0.1
	c0.3,0.1,0.7,0.1,1,0.2c0.3,0,0.6,0.1,0.9,0.1s0.6,0.1,1,0.1s0.7,0.1,1.1,0.1c0.3,0,0.5,0,0.8,0.1c0.6,0,1.2,0,1.8,0h0.1h0.1
	c0.6,0,1.2,0,1.8,0c0.2,0,0.5,0,0.7,0c0.4,0,0.8-0.1,1.2-0.1c0.3,0,0.6-0.1,0.8-0.1c0.4,0,0.7-0.1,1-0.1s0.6-0.1,0.9-0.1
	c0.3-0.1,0.7-0.1,1-0.2c0.5-0.1,1.1-0.2,1.6-0.3c0.3-0.1,0.5-0.1,0.8-0.2c0.4-0.1,0.7-0.2,1-0.3c0.2-0.1,0.5-0.1,0.7-0.2
	c0.4-0.1,0.7-0.2,1.1-0.3c0.2-0.1,0.4-0.1,0.6-0.2c0.4-0.1,0.8-0.3,1.2-0.4c0.1,0,0.1-0.1,0.2-0.1c1.4-0.5,2.8-1.1,4.1-1.8
	c0.1,0,0.1-0.1,0.2-0.1c0.4-0.2,0.8-0.4,1.3-0.7c0.1,0,0.1-0.1,0.2-0.1c1.4-0.8,2.7-1.6,3.9-2.5c0,0,0.8-0.6,1.9-1.5l5.5-3.8
	c6.3-3.8,13.7-6,21.5-6.1l0,0c7.9,0.1,15.2,2.2,21.5,6c1.9,1.1,5.9,4.2,5.9,4.2c2.2,1.8,4.6,3.3,7.2,4.6l0,0c2.5,1.3,5.1,2.3,7.9,3
	c0.1,0,0.2,0.1,0.3,0.1c0.4,0.1,0.8,0.2,1.2,0.3c0.2,0,0.4,0.1,0.6,0.1c0.4,0.1,0.7,0.2,1.1,0.2c0.3,0,0.5,0.1,0.8,0.1
	c0.3,0.1,0.7,0.1,1,0.2c0.3,0,0.6,0.1,0.9,0.1c0.3,0,0.6,0.1,1,0.1s0.7,0.1,1.1,0.1c0.3,0,0.5,0,0.8,0.1c0.6,0,1.2,0,1.8,0h0.1h0.1
	c0.6,0,1.2,0,1.8,0c0.2,0,0.5,0,0.7,0c0.4,0,0.8-0.1,1.2-0.1c0.3,0,0.6-0.1,0.8-0.1c0.4,0,0.7-0.1,1-0.1s0.6-0.1,0.9-0.1
	c0.3-0.1,0.7-0.1,1-0.2c0.5-0.1,1.1-0.2,1.6-0.3c0.3-0.1,0.5-0.1,0.8-0.2c0.4-0.1,0.7-0.2,1-0.3c0.2-0.1,0.5-0.1,0.7-0.2
	c0.4-0.1,0.7-0.2,1.1-0.3c0.2-0.1,0.4-0.1,0.6-0.2c0.4-0.1,0.8-0.3,1.2-0.4c0.1,0,0.1-0.1,0.2-0.1c1.4-0.5,2.8-1.1,4.1-1.8
	c0.1,0,0.1-0.1,0.2-0.1c0.4-0.2,0.8-0.4,1.3-0.7c0.1,0,0.1-0.1,0.2-0.1c1.4-0.8,2.7-1.6,3.9-2.5c0,0,0.8-0.6,1.9-1.5l5.5-3.8
	c6.3-3.8,13.7-6,21.5-6.1l0,0c7.9,0.1,15.2,2.2,21.5,6c1.9,1.1,5.9,4.2,5.9,4.2c2.2,1.8,4.6,3.3,7.2,4.6l0,0c2.5,1.3,5.1,2.3,7.9,3
	c0.1,0,0.2,0.1,0.3,0.1c0.4,0.1,0.8,0.2,1.2,0.3c0.2,0,0.4,0.1,0.6,0.1c0.4,0.1,0.7,0.2,1.1,0.2c0.3,0,0.5,0.1,0.8,0.1
	c0.3,0.1,0.7,0.1,1,0.2c0.3,0,0.6,0.1,0.9,0.1c0.3,0,0.6,0.1,1,0.1s0.7,0.1,1.1,0.1c0.3,0,0.5,0,0.8,0.1c0.6,0,1.2,0,1.8,0h0.1h0.1
	c0.6,0,1.2,0,1.8,0c0.2,0,0.5,0,0.7,0c0.4,0,0.8-0.1,1.2-0.1c0.3,0,0.6-0.1,0.8-0.1c0.4,0,0.7-0.1,1-0.1s0.6-0.1,0.9-0.1
	c0.3-0.1,0.7-0.1,1-0.2c0.5-0.1,1.1-0.2,1.6-0.3c0.3-0.1,0.5-0.1,0.8-0.2c0.4-0.1,0.7-0.2,1-0.3c0.2-0.1,0.5-0.1,0.7-0.2
	c0.4-0.1,0.7-0.2,1.1-0.3c0.2-0.1,0.4-0.1,0.6-0.2c0.4-0.1,0.8-0.3,1.2-0.4c0.1,0,0.1-0.1,0.2-0.1c1.4-0.5,2.8-1.1,4.1-1.8
	c0.1,0,0.1-0.1,0.2-0.1c0.4-0.2,0.8-0.4,1.3-0.7c0.1,0,0.1-0.1,0.2-0.1c1.4-0.8,2.7-1.6,3.9-2.5c0,0,0.8-0.6,1.9-1.5l5.5-3.8
	c6.3-3.8,13.7-6,21.5-6.1l0,0c7.9,0.1,15.2,2.2,21.5,6c1.9,1.1,5.9,4.2,5.9,4.2c2.2,1.8,4.6,3.3,7.2,4.6l0,0c2.5,1.3,5.1,2.3,7.9,3
	c0.1,0,0.2,0.1,0.3,0.1c0.4,0.1,0.8,0.2,1.2,0.3c0.2,0,0.4,0.1,0.6,0.1c0.4,0.1,0.7,0.2,1.1,0.2c0.3,0,0.5,0.1,0.8,0.1
	c0.3,0.1,0.7,0.1,1,0.2c0.3,0,0.6,0.1,0.9,0.1c0.3,0,0.6,0.1,1,0.1s0.7,0.1,1.1,0.1c0.3,0,0.5,0,0.8,0.1c0.6,0,1.2,0,1.8,0h0.1h0.1
	c0.6,0,1.2,0,1.8,0c0.2,0,0.5,0,0.7,0c0.4,0,0.8-0.1,1.2-0.1c0.3,0,0.6-0.1,0.8-0.1c0.4,0,0.7-0.1,1-0.1s0.6-0.1,0.9-0.1
	c0.3-0.1,0.7-0.1,1-0.2c0.5-0.1,1.1-0.2,1.6-0.3c0.3-0.1,0.5-0.1,0.8-0.2c0.4-0.1,0.7-0.2,1-0.3c0.2-0.1,0.5-0.1,0.7-0.2
	c0.4-0.1,0.7-0.2,1.1-0.3c0.2-0.1,0.4-0.1,0.6-0.2c0.4-0.1,0.8-0.3,1.2-0.4c0.1,0,0.1-0.1,0.2-0.1c1.4-0.5,2.8-1.1,4.1-1.8
	c0.1,0,0.1-0.1,0.2-0.1c0.4-0.2,0.8-0.4,1.3-0.7c0.1,0,0.1-0.1,0.2-0.1c1.4-0.8,2.7-1.6,3.9-2.5c0,0,0.8-0.6,1.9-1.5l5.5-3.8
	c6.3-3.8,13.7-6,21.5-6.1v1C776.4,210.8,767.5,214.2,760.5,219.9z"/>
<path d="M286.2,132.4c-1.3-0.6-2.7,0-3.3,1.3c-0.1,0.3-13.1,29.6-23.7,52c-4.7,10-7.1,9.7-7.1,9.7c-0.3-0.1-3.1-1-6-15.5
	c-2.3-11.7-4.1-29.8-5.4-53.7c-1-18.1-0.9-33.3-0.3-45.9c8.1-0.2,16.7-0.2,23.1,0.2c1.4,0.1,2.6-0.9,2.7-2.3s-0.9-2.6-2.3-2.7
	c-6.5-0.4-15-0.4-23.1-0.3c2.2-34.4,8.8-47.5,8.9-47.7c0.6-1.2,0.2-2.7-1-3.4c-1.2-0.6-2.7-0.2-3.4,1c-0.4,0.8-7.3,14.2-9.5,50.2
	c-10.9,0.3-19.9,0.9-20.6,0.9c-1.4,0.1-2.4,1.3-2.3,2.6c0.1,1.3,1.2,2.3,2.5,2.3c0.1,0,0.1,0,0.2,0c0.2,0,9.1-0.5,20-0.9
	c-0.4,9-0.5,19.2-0.2,30.9c-19.6,24-52.4,59-64.2,59c-0.5,0-2,0-3.1-2.8c-1-2.3-1.5-5.7-1.5-10c0-4.2,0.4-8.8,1.3-13.6
	c0.2,0,0.5-0.1,0.7-0.2c7.4-3.1,32.8-32.3,30.3-44.4c-0.4-2.1-2-5.6-8.1-5.6c-9,0-16.8,12.5-22,27.4c0,0,0,0-0.1,0
	c-0.3,0.2-18.8,16-38.9,36.8c13.7-49.1,9.1-55.8,7.6-58.1c-1.1-1.7-2.8-2.6-4.7-2.6c-6.3-0.2-13.1,4.4-20.1,11.2
	c-6.6-2.7-21.6-6.2-33.3,9.9C70,130.9,62.2,147.3,67,153c1.4,1.7,4.3,3.1,9.8,0.4c5.7-2.8,13-11.5,21.4-21.6
	c4.8-5.8,10.2-12.2,15.4-17.6c1.1,0.5,2.4,0.1,3.1-1c0.4-0.7,0.5-1.6,0.2-2.3c5.7-5.4,11.2-9.2,15.6-9c0.2,0,0.4,0,0.7,0.5
	c4,5.9-2.3,33.8-10.9,63.2c-7.7,8.3-15.3,17.2-22,26c-21.8,29.1-31.5,63-26.8,76.3c1.4,4,3.9,5.5,5.7,5.9c0.5,0.1,1,0.2,1.6,0.2
	c4.2,0,10.3-4.7,20.2-29.1c5.7-14.1,10.2-28.7,10.5-29.8c0.4-1.2,8.1-23,15.2-47c15.3-16.5,30.8-30.8,39.1-38.1
	c-2.7,9.9-4.2,19.9-4.2,27.3c0,5,0.6,9.1,1.9,12c2.1,5,5.8,5.8,7.7,5.8c15.6,0,51.6-41.2,64.4-56.5c0.1,2.5,0.2,5,0.4,7.6
	c3.4,62.9,9.4,72.7,15.4,73.9c0.4,0.1,0.7,0.1,1.1,0.1c4.9,0,8.7-6.6,11.5-12.5c10.6-22.5,23.6-51.8,23.8-52.1
	C288,134.4,287.4,132.9,286.2,132.4z M94,128.8c-7.7,9.3-15,18-19.7,20.3c-2.7,1.3-3.7,1-3.8,0.9c-1.6-1.9,1.3-13.4,12.5-28.8
	c5.8-8,12.5-10.2,18.1-10.2c2.8,0,5.4,0.6,7.4,1.2C103.6,117.3,98.8,123,94,128.8z M106.5,213.7v0.1c0,0.1-4.6,15.1-10.4,29.4
	c-10.9,26.9-15.8,25.9-15.9,25.9c-0.9-0.2-1.7-1.2-2.3-2.7c-3.7-10.5,4.5-42.8,26.1-71.7c4.5-6,9.5-12,14.6-17.9
	C114.6,190,110.3,202.9,106.5,213.7z M190.4,98.7c2.9,0,3.1,1.1,3.2,1.6c1.6,7.7-16.6,30.4-24.8,37.1
	C173.2,118.1,182.4,98.7,190.4,98.7z"/>
<path class="st2" d="M286.2,132.4c-1.3-0.6-2.7,0-3.3,1.3c-0.1,0.3-13.1,29.6-23.7,52c-4.7,10-7.1,9.7-7.1,9.7
	c-0.3-0.1-3.1-1-6-15.5c-2.3-11.7-4.1-29.8-5.4-53.7c-1-18.1-0.9-33.3-0.3-45.9c8.1-0.2,16.7-0.2,23.1,0.2c1.4,0.1,2.6-0.9,2.7-2.3
	s-0.9-2.6-2.3-2.7c-6.5-0.4-15-0.4-23.1-0.3c2.2-34.4,8.8-47.5,8.9-47.7c0.6-1.2,0.2-2.7-1-3.4c-1.2-0.6-2.7-0.2-3.4,1
	c-0.4,0.8-7.3,14.2-9.5,50.2c-10.9,0.3-19.9,0.9-20.6,0.9c-1.4,0.1-2.4,1.3-2.3,2.6c0.1,1.3,1.2,2.3,2.5,2.3c0.1,0,0.1,0,0.2,0
	c0.2,0,9.1-0.5,20-0.9c-0.4,9-0.5,19.2-0.2,30.9c-19.6,24-52.4,59-64.2,59c-0.5,0-2,0-3.1-2.8c-1-2.3-1.5-5.7-1.5-10
	c0-4.2,0.4-8.8,1.3-13.6c0.2,0,0.5-0.1,0.7-0.2c7.4-3.1,32.8-32.3,30.3-44.4c-0.4-2.1-2-5.6-8.1-5.6c-9,0-16.8,12.5-22,27.4
	c0,0,0,0-0.1,0c-0.3,0.2-18.8,16-38.9,36.8c13.7-49.1,9.1-55.8,7.6-58.1c-1.1-1.7-2.8-2.6-4.7-2.6c-6.3-0.2-13.1,4.4-20.1,11.2
	c-6.6-2.7-21.6-6.2-33.3,9.9C70,130.9,62.2,147.3,67,153c1.4,1.7,4.3,3.1,9.8,0.4c5.7-2.8,13-11.5,21.4-21.6
	c4.8-5.8,10.2-12.2,15.4-17.6c1.1,0.5,2.4,0.1,3.1-1c0.4-0.7,0.5-1.6,0.2-2.3c5.7-5.4,11.2-9.2,15.6-9c0.2,0,0.4,0,0.7,0.5
	c4,5.9-2.3,33.8-10.9,63.2c-7.7,8.3-15.3,17.2-22,26c-21.8,29.1-31.5,63-26.8,76.3c1.4,4,3.9,5.5,5.7,5.9c0.5,0.1,1,0.2,1.6,0.2
	c4.2,0,10.3-4.7,20.2-29.1c5.7-14.1,10.2-28.7,10.5-29.8c0.4-1.2,8.1-23,15.2-47c15.3-16.5,30.8-30.8,39.1-38.1
	c-2.7,9.9-4.2,19.9-4.2,27.3c0,5,0.6,9.1,1.9,12c2.1,5,5.8,5.8,7.7,5.8c15.6,0,51.6-41.2,64.4-56.5c0.1,2.5,0.2,5,0.4,7.6
	c3.4,62.9,9.4,72.7,15.4,73.9c0.4,0.1,0.7,0.1,1.1,0.1c4.9,0,8.7-6.6,11.5-12.5c10.6-22.5,23.6-51.8,23.8-52.1
	C288,134.4,287.4,132.9,286.2,132.4z M94,128.8c-7.7,9.3-15,18-19.7,20.3c-2.7,1.3-3.7,1-3.8,0.9c-1.6-1.9,1.3-13.4,12.5-28.8
	c5.8-8,12.5-10.2,18.1-10.2c2.8,0,5.4,0.6,7.4,1.2C103.6,117.3,98.8,123,94,128.8z M106.5,213.7v0.1c0,0.1-4.6,15.1-10.4,29.4
	c-10.9,26.9-15.8,25.9-15.9,25.9c-0.9-0.2-1.7-1.2-2.3-2.7c-3.7-10.5,4.5-42.8,26.1-71.7c4.5-6,9.5-12,14.6-17.9
	C114.6,190,110.3,202.9,106.5,213.7z M190.4,98.7c2.9,0,3.1,1.1,3.2,1.6c1.6,7.7-16.6,30.4-24.8,37.1
	C173.2,118.1,182.4,98.7,190.4,98.7z"/>
</svg>
