<?xml version="1.0" encoding="utf-8"?>
<!-- Generator: Adobe Illustrator 24.3.0, SVG Export Plug-In . SVG Version: 6.00 Build 0)  -->
<svg version="1.1" id="Layer_1" focusable="false" xmlns="http://www.w3.org/2000/svg" xmlns:xlink="http://www.w3.org/1999/xlink"
	 x="0px" y="0px" viewBox="0 0 448 451" style="enable-background:new 0 0 448 451;" xml:space="preserve">
<style type="text/css">
	.st0{fill:#FFFFFF;}
</style>
<path class="st0" d="M224,171.7c-29.5,0-53.3,23.9-53.3,53.4c0,29.5,23.9,53.3,53.4,53.3c29.5,0,53.3-23.9,53.3-53.3
	C277.3,195.5,253.5,171.7,224,171.7z M348.7,130.7c-5.5-13.9-16.5-24.9-30.4-30.4c-21-8.3-71-6.4-94.3-6.4s-73.3-1.9-94.3,6.4
	c-13.9,5.5-24.9,16.5-30.4,30.4c-8.3,21-6.4,71.1-6.4,94.3s-1.8,73.3,6.5,94.3c5.5,13.9,16.5,24.9,30.4,30.4c21,8.3,71,6.4,94.3,6.4
	s73.2,1.9,94.3-6.4c13.9-5.5,24.9-16.5,30.4-30.4c8.4-21,6.4-71.1,6.4-94.3S357.1,151.7,348.7,130.7L348.7,130.7z M224,307
	c-45.3,0-82-36.7-82-82s36.7-82,82-82s82,36.7,82,82c0.1,45.2-36.6,81.9-81.8,82C224.1,307,224.1,307,224,307z M309.4,158.7
	c-10.6,0-19.1-8.6-19.1-19.1s8.6-19.1,19.1-19.1c10.6,0,19.1,8.6,19.1,19.1c0,0,0,0,0,0c0,10.5-8.5,19.1-19,19.2
	C309.5,158.7,309.4,158.7,309.4,158.7L309.4,158.7z M400,1H48C21.5,1,0,22.5,0,49v352c0,26.5,21.5,48,48,48h352
	c26.5,0,48-21.5,48-48V49C448,22.5,426.5,1,400,1z M382.9,291c-1.3,25.6-7.1,48.3-25.9,67s-41.4,24.6-67,25.9
	c-26.4,1.5-105.6,1.5-132,0c-25.6-1.3-48.3-7.1-67-25.9s-24.6-41.4-25.8-67c-1.5-26.4-1.5-105.6,0-132c1.3-25.6,7.1-48.3,25.8-67
	s41.5-24.6,67-25.8c26.4-1.5,105.6-1.5,132,0c25.6,1.3,48.3,7.2,67,25.8s24.6,41.4,25.9,67C384.4,185.4,384.4,264.6,382.9,291z"/>
</svg>
