<?xml version="1.0" encoding="utf-8"?>
<!-- Generator: Adobe Illustrator 24.3.0, SVG Export Plug-In . SVG Version: 6.00 Build 0)  -->
<svg version="1.1" id="Layer_1" xmlns="http://www.w3.org/2000/svg" xmlns:xlink="http://www.w3.org/1999/xlink" x="0px" y="0px"
	 viewBox="0 0 50 50" style="enable-background:new 0 0 50 50;" xml:space="preserve">
<path d="M48.2,2.4L38,0.1c-1.1-0.3-2.2,0.3-2.7,1.4l-4.7,10.9c-0.4,1-0.1,2.1,0.7,2.7l5.9,4.8c-3.5,7.5-9.7,13.7-17.3,17.3l-4.8-5.9
	c-0.7-0.8-1.8-1.1-2.7-0.7l-11,4.7c-1,0.5-1.6,1.6-1.4,2.7l2.3,10.2c0.3,1,1.3,1.8,2.4,1.8C29.7,50,50,29.7,50,4.7
	C50,3.6,49.2,2.6,48.2,2.4z"/>
</svg>
